<svg xmlns="http://www.w3.org/2000/svg" id="svg734" width="512" height="512" version="1.1"><metadata id="metadata4587"/><defs id="defs736"><clipPath id="clipPath7329" clipPathUnits="userSpaceOnUse"><rect id="rect7331" width="496.06" height="496.06" x="185.98" y="0" fill-opacity=".67"/></clipPath></defs><g id="flag" fill-rule="evenodd" clip-path="url(#clipPath7329)" transform="matrix(1.0321 0 0 1.0321 -191.96 .000018331)"><rect id="rect1052" width="868.11" height="496.06" x="0" y="0" fill="#fff" stroke-width="1pt"/><rect id="rect1927" width="868.11" height="162.93" x="0" y="333.13" fill="#da0000" stroke-width="1pt"/><g id="g772" fill="#fff" stroke-width="1pt" transform="matrix(1.4724 0 0 1.4724 117.81 35.66)"><rect id="rect750" width="32.289" height="2.222" x="32.067" y="206.72"/><rect id="rect751" width="2.222" height="2.158" x="36.881" y="217.83"/><rect id="rect753" width="2.222" height="6.453" x="217.76" y="-64.44" transform="rotate(90)"/><rect id="rect755" width="2.222" height="13.266" x="67.911" y="206.72"/><rect id="rect756" width="2.222" height="12.229" x="217.76" y="-80.765" transform="rotate(90)"/><rect id="rect757" width="2.222" height="7.416" x="57.987" y="212.57"/><rect id="rect758" width="2.222" height="13.266" x="67.911" y="206.72" transform="translate(11.035 -.000015259)"/><rect id="rect759" width="2.222" height="13.266" x="73.391" y="206.72"/><rect id="rect760" width="2.222" height="11.785" x="212" y="-43.903" transform="matrix(0 1 -1 0 .0092220 -.000015259)"/><rect id="rect763" width="2.222" height="11.785" x="212" y="-69.772" transform="rotate(90)"/><rect id="rect764" width="2.222" height="7.416" x="57.987" y="212.57"/><rect id="rect765" width="2.222" height="7.416" x="57.987" y="212.57"/><rect id="rect766" width="2.222" height="7.416" x="57.987" y="212.57"/><rect id="rect767" width="2.222" height="7.416" x="32.299" y="212.57" transform="translate(-.17213 -.000015259)"/><rect id="rect768" width="2.222" height="7.416" x="51.082" y="212.57"/><rect id="rect769" width="2.222" height="7.416" x="41.691" y="212.57" transform="translate(0 -.000015259)"/><rect id="rect770" width="2.222" height="9.962" x="217.76" y="-52.641" transform="rotate(90)"/><rect id="rect771" width="2.222" height="6.316" x="212" y="-53.304" transform="rotate(90)"/></g><g id="g791" fill="#fff" stroke-width="1pt" transform="matrix(1.4724 0 0 1.4724 39.725 35.66)"><rect id="rect792" width="32.289" height="2.222" x="32.067" y="206.72"/><rect id="rect793" width="2.222" height="2.158" x="36.881" y="217.83"/><rect id="rect794" width="2.222" height="6.453" x="217.76" y="-64.44" transform="rotate(90)"/><rect id="rect795" width="2.222" height="13.266" x="67.911" y="206.72"/><rect id="rect796" width="2.222" height="12.229" x="217.76" y="-80.765" transform="rotate(90)"/><rect id="rect797" width="2.222" height="7.416" x="57.987" y="212.57"/><rect id="rect798" width="2.222" height="13.266" x="67.911" y="206.72" transform="translate(11.035 -.000015259)"/><rect id="rect799" width="2.222" height="13.266" x="73.391" y="206.72"/><rect id="rect800" width="2.222" height="11.785" x="212" y="-43.903" transform="matrix(0 1 -1 0 .0092220 -.000015259)"/><rect id="rect801" width="2.222" height="11.785" x="212" y="-69.772" transform="rotate(90)"/><rect id="rect802" width="2.222" height="7.416" x="57.987" y="212.57"/><rect id="rect803" width="2.222" height="7.416" x="57.987" y="212.57"/><rect id="rect804" width="2.222" height="7.416" x="57.987" y="212.57"/><rect id="rect805" width="2.222" height="7.416" x="32.299" y="212.57" transform="translate(-.17213 -.000015259)"/><rect id="rect806" width="2.222" height="7.416" x="51.082" y="212.57"/><rect id="rect807" width="2.222" height="7.416" x="41.691" y="212.57" transform="translate(0 -.000015259)"/><rect id="rect808" width="2.222" height="9.962" x="217.76" y="-52.641" transform="rotate(90)"/><rect id="rect809" width="2.222" height="6.316" x="212" y="-53.304" transform="rotate(90)"/></g><g id="g812" fill="#fff" stroke-width="1pt" transform="matrix(1.4724 0 0 1.4724 195.25 35.66)"><rect id="rect813" width="32.289" height="2.222" x="32.067" y="206.72"/><rect id="rect814" width="2.222" height="2.158" x="36.881" y="217.83"/><rect id="rect815" width="2.222" height="6.453" x="217.76" y="-64.44" transform="rotate(90)"/><rect id="rect816" width="2.222" height="13.266" x="67.911" y="206.72"/><rect id="rect817" width="2.222" height="12.229" x="217.76" y="-80.765" transform="rotate(90)"/><rect id="rect818" width="2.222" height="7.416" x="57.987" y="212.57"/><rect id="rect819" width="2.222" height="13.266" x="67.911" y="206.72" transform="translate(11.035 -.000015259)"/><rect id="rect820" width="2.222" height="13.266" x="73.391" y="206.72"/><rect id="rect821" width="2.222" height="11.785" x="212" y="-43.903" transform="matrix(0 1 -1 0 .0092220 -.000015259)"/><rect id="rect822" width="2.222" height="11.785" x="212" y="-69.772" transform="rotate(90)"/><rect id="rect823" width="2.222" height="7.416" x="57.987" y="212.57"/><rect id="rect824" width="2.222" height="7.416" x="57.987" y="212.57"/><rect id="rect825" width="2.222" height="7.416" x="57.987" y="212.57"/><rect id="rect826" width="2.222" height="7.416" x="32.299" y="212.57" transform="translate(-.17213 -.000015259)"/><rect id="rect827" width="2.222" height="7.416" x="51.082" y="212.57"/><rect id="rect828" width="2.222" height="7.416" x="41.691" y="212.57" transform="translate(0 -.000015259)"/><rect id="rect829" width="2.222" height="9.962" x="217.76" y="-52.641" transform="rotate(90)"/><rect id="rect830" width="2.222" height="6.316" x="212" y="-53.304" transform="rotate(90)"/></g><g id="g840" fill="#fff" stroke-width="1pt" transform="matrix(1.4724 0 0 1.4724 742.06 35.66)"><rect id="rect841" width="32.289" height="2.222" x="32.067" y="206.72"/><rect id="rect842" width="2.222" height="2.158" x="36.881" y="217.83"/><rect id="rect843" width="2.222" height="6.453" x="217.76" y="-64.44" transform="rotate(90)"/><rect id="rect844" width="2.222" height="13.266" x="67.911" y="206.72"/><rect id="rect845" width="2.222" height="12.229" x="217.76" y="-80.765" transform="rotate(90)"/><rect id="rect846" width="2.222" height="7.416" x="57.987" y="212.57"/><rect id="rect847" width="2.222" height="13.266" x="67.911" y="206.72" transform="translate(11.035 -.000015259)"/><rect id="rect848" width="2.222" height="13.266" x="73.391" y="206.72"/><rect id="rect849" width="2.222" height="11.785" x="212" y="-43.903" transform="matrix(0 1 -1 0 .0092220 -.000015259)"/><rect id="rect850" width="2.222" height="11.785" x="212" y="-69.772" transform="rotate(90)"/><rect id="rect851" width="2.222" height="7.416" x="57.987" y="212.57"/><rect id="rect852" width="2.222" height="7.416" x="57.987" y="212.57"/><rect id="rect853" width="2.222" height="7.416" x="57.987" y="212.57"/><rect id="rect854" width="2.222" height="7.416" x="32.299" y="212.57" transform="translate(-.17213 -.000015259)"/><rect id="rect855" width="2.222" height="7.416" x="51.082" y="212.57"/><rect id="rect856" width="2.222" height="7.416" x="41.691" y="212.57" transform="translate(0 -.000015259)"/><rect id="rect857" width="2.222" height="9.962" x="217.76" y="-52.641" transform="rotate(90)"/><rect id="rect858" width="2.222" height="6.316" x="212" y="-53.304" transform="rotate(90)"/></g><g id="g859" fill="#fff" stroke-width="1pt" transform="matrix(1.4724 0 0 1.4724 273.19 35.66)"><rect id="rect860" width="32.289" height="2.222" x="32.067" y="206.72"/><rect id="rect861" width="2.222" height="2.158" x="36.881" y="217.83"/><rect id="rect862" width="2.222" height="6.453" x="217.76" y="-64.44" transform="rotate(90)"/><rect id="rect863" width="2.222" height="13.266" x="67.911" y="206.72"/><rect id="rect864" width="2.222" height="12.229" x="217.76" y="-80.765" transform="rotate(90)"/><rect id="rect865" width="2.222" height="7.416" x="57.987" y="212.57"/><rect id="rect866" width="2.222" height="13.266" x="67.911" y="206.72" transform="translate(11.035 -.000015259)"/><rect id="rect867" width="2.222" height="13.266" x="73.391" y="206.72"/><rect id="rect868" width="2.222" height="11.785" x="212" y="-43.903" transform="matrix(0 1 -1 0 .0092220 -.000015259)"/><rect id="rect869" width="2.222" height="11.785" x="212" y="-69.772" transform="rotate(90)"/><rect id="rect870" width="2.222" height="7.416" x="57.987" y="212.57"/><rect id="rect871" width="2.222" height="7.416" x="57.987" y="212.57"/><rect id="rect872" width="2.222" height="7.416" x="57.987" y="212.57"/><rect id="rect873" width="2.222" height="7.416" x="32.299" y="212.57" transform="translate(-.17213 -.000015259)"/><rect id="rect874" width="2.222" height="7.416" x="51.082" y="212.57"/><rect id="rect875" width="2.222" height="7.416" x="41.691" y="212.57" transform="translate(0 -.000015259)"/><rect id="rect876" width="2.222" height="9.962" x="217.76" y="-52.641" transform="rotate(90)"/><rect id="rect877" width="2.222" height="6.316" x="212" y="-53.304" transform="rotate(90)"/></g><g id="g878" fill="#fff" stroke-width="1pt" transform="matrix(1.4724 0 0 1.4724 351.41 35.66)"><rect id="rect879" width="32.289" height="2.222" x="32.067" y="206.72"/><rect id="rect880" width="2.222" height="2.158" x="36.881" y="217.83"/><rect id="rect881" width="2.222" height="6.453" x="217.76" y="-64.44" transform="rotate(90)"/><rect id="rect882" width="2.222" height="13.266" x="67.911" y="206.72"/><rect id="rect883" width="2.222" height="12.229" x="217.76" y="-80.765" transform="rotate(90)"/><rect id="rect884" width="2.222" height="7.416" x="57.987" y="212.57"/><rect id="rect885" width="2.222" height="13.266" x="67.911" y="206.72" transform="translate(11.035 -.000015259)"/><rect id="rect886" width="2.222" height="13.266" x="73.391" y="206.72"/><rect id="rect887" width="2.222" height="11.785" x="212" y="-43.903" transform="matrix(0 1 -1 0 .0092220 -.000015259)"/><rect id="rect888" width="2.222" height="11.785" x="212" y="-69.772" transform="rotate(90)"/><rect id="rect889" width="2.222" height="7.416" x="57.987" y="212.57"/><rect id="rect890" width="2.222" height="7.416" x="57.987" y="212.57"/><rect id="rect891" width="2.222" height="7.416" x="57.987" y="212.57"/><rect id="rect892" width="2.222" height="7.416" x="32.299" y="212.57" transform="translate(-.17213 -.000015259)"/><rect id="rect893" width="2.222" height="7.416" x="51.082" y="212.57"/><rect id="rect894" width="2.222" height="7.416" x="41.691" y="212.57" transform="translate(0 -.000015259)"/><rect id="rect895" width="2.222" height="9.962" x="217.76" y="-52.641" transform="rotate(90)"/><rect id="rect896" width="2.222" height="6.316" x="212" y="-53.304" transform="rotate(90)"/></g><rect id="rect1926" width="868.11" height="162.93" x="0" y="0" fill="#239f40" stroke-width="1pt"/><g id="g897" fill="#fff" stroke-width="1pt" transform="matrix(1.4724 0 0 1.4724 430.09 35.66)"><rect id="rect898" width="32.289" height="2.222" x="32.067" y="206.72"/><rect id="rect899" width="2.222" height="2.158" x="36.881" y="217.83"/><rect id="rect900" width="2.222" height="6.453" x="217.76" y="-64.44" transform="rotate(90)"/><rect id="rect901" width="2.222" height="13.266" x="67.911" y="206.72"/><rect id="rect902" width="2.222" height="12.229" x="217.76" y="-80.765" transform="rotate(90)"/><rect id="rect903" width="2.222" height="7.416" x="57.987" y="212.57"/><rect id="rect904" width="2.222" height="13.266" x="67.911" y="206.72" transform="translate(11.035 -.000015259)"/><rect id="rect905" width="2.222" height="13.266" x="73.391" y="206.72"/><rect id="rect906" width="2.222" height="11.785" x="212" y="-43.903" transform="matrix(0 1 -1 0 .0092220 -.000015259)"/><rect id="rect907" width="2.222" height="11.785" x="212" y="-69.772" transform="rotate(90)"/><rect id="rect908" width="2.222" height="7.416" x="57.987" y="212.57"/><rect id="rect909" width="2.222" height="7.416" x="57.987" y="212.57"/><rect id="rect910" width="2.222" height="7.416" x="57.987" y="212.57"/><rect id="rect911" width="2.222" height="7.416" x="32.299" y="212.57" transform="translate(-.17213 -.000015259)"/><rect id="rect912" width="2.222" height="7.416" x="51.082" y="212.57"/><rect id="rect913" width="2.222" height="7.416" x="41.691" y="212.57" transform="translate(0 -.000015259)"/><rect id="rect914" width="2.222" height="9.962" x="217.76" y="-52.641" transform="rotate(90)"/><rect id="rect915" width="2.222" height="6.316" x="212" y="-53.304" transform="rotate(90)"/></g><g id="g916" fill="#fff" stroke-width="1pt" transform="matrix(1.4724 0 0 1.4724 508.32 35.66)"><rect id="rect917" width="32.289" height="2.222" x="32.067" y="206.72"/><rect id="rect918" width="2.222" height="2.158" x="36.881" y="217.83"/><rect id="rect919" width="2.222" height="6.453" x="217.76" y="-64.44" transform="rotate(90)"/><rect id="rect920" width="2.222" height="13.266" x="67.911" y="206.72"/><rect id="rect921" width="2.222" height="12.229" x="217.76" y="-80.765" transform="rotate(90)"/><rect id="rect922" width="2.222" height="7.416" x="57.987" y="212.57"/><rect id="rect923" width="2.222" height="13.266" x="67.911" y="206.72" transform="translate(11.035 -.000015259)"/><rect id="rect924" width="2.222" height="13.266" x="73.391" y="206.72"/><rect id="rect925" width="2.222" height="11.785" x="212" y="-43.903" transform="matrix(0 1 -1 0 .0092220 -.000015259)"/><rect id="rect926" width="2.222" height="11.785" x="212" y="-69.772" transform="rotate(90)"/><rect id="rect927" width="2.222" height="7.416" x="57.987" y="212.57"/><rect id="rect928" width="2.222" height="7.416" x="57.987" y="212.57"/><rect id="rect929" width="2.222" height="7.416" x="57.987" y="212.57"/><rect id="rect930" width="2.222" height="7.416" x="32.299" y="212.57" transform="translate(-.17213 -.000015259)"/><rect id="rect931" width="2.222" height="7.416" x="51.082" y="212.57"/><rect id="rect932" width="2.222" height="7.416" x="41.691" y="212.57" transform="translate(0 -.000015259)"/><rect id="rect933" width="2.222" height="9.962" x="217.76" y="-52.641" transform="rotate(90)"/><rect id="rect934" width="2.222" height="6.316" x="212" y="-53.304" transform="rotate(90)"/></g><g id="g935" fill="#fff" stroke-width="1pt" transform="matrix(1.4724 0 0 1.4724 586.54 35.66)"><rect id="rect936" width="32.289" height="2.222" x="32.067" y="206.72"/><rect id="rect937" width="2.222" height="2.158" x="36.881" y="217.83"/><rect id="rect938" width="2.222" height="6.453" x="217.76" y="-64.44" transform="rotate(90)"/><rect id="rect939" width="2.222" height="13.266" x="67.911" y="206.72"/><rect id="rect940" width="2.222" height="12.229" x="217.76" y="-80.765" transform="rotate(90)"/><rect id="rect941" width="2.222" height="7.416" x="57.987" y="212.57"/><rect id="rect942" width="2.222" height="13.266" x="67.911" y="206.72" transform="translate(11.035 -.000015259)"/><rect id="rect943" width="2.222" height="13.266" x="73.391" y="206.72"/><rect id="rect944" width="2.222" height="11.785" x="212" y="-43.903" transform="matrix(0 1 -1 0 .0092220 -.000015259)"/><rect id="rect945" width="2.222" height="11.785" x="212" y="-69.772" transform="rotate(90)"/><rect id="rect946" width="2.222" height="7.416" x="57.987" y="212.57"/><rect id="rect947" width="2.222" height="7.416" x="57.987" y="212.57"/><rect id="rect948" width="2.222" height="7.416" x="57.987" y="212.57"/><rect id="rect949" width="2.222" height="7.416" x="32.299" y="212.57" transform="translate(-.17213 -.000015259)"/><rect id="rect950" width="2.222" height="7.416" x="51.082" y="212.57"/><rect id="rect951" width="2.222" height="7.416" x="41.691" y="212.57" transform="translate(0 -.000015259)"/><rect id="rect952" width="2.222" height="9.962" x="217.76" y="-52.641" transform="rotate(90)"/><rect id="rect953" width="2.222" height="6.316" x="212" y="-53.304" transform="rotate(90)"/></g><g id="g954" fill="#fff" stroke-width="1pt" transform="matrix(1.4724 0 0 1.4724 665.22 35.66)"><rect id="rect955" width="32.289" height="2.222" x="32.067" y="206.72"/><rect id="rect956" width="2.222" height="2.158" x="36.881" y="217.83"/><rect id="rect957" width="2.222" height="6.453" x="217.76" y="-64.44" transform="rotate(90)"/><rect id="rect958" width="2.222" height="13.266" x="67.911" y="206.72"/><rect id="rect959" width="2.222" height="12.229" x="217.76" y="-80.765" transform="rotate(90)"/><rect id="rect960" width="2.222" height="7.416" x="57.987" y="212.57"/><rect id="rect961" width="2.222" height="13.266" x="67.911" y="206.72" transform="translate(11.035 -.000015259)"/><rect id="rect962" width="2.222" height="13.266" x="73.391" y="206.72"/><rect id="rect963" width="2.222" height="11.785" x="212" y="-43.903" transform="matrix(0 1 -1 0 .0092220 -.000015259)"/><rect id="rect964" width="2.222" height="11.785" x="212" y="-69.772" transform="rotate(90)"/><rect id="rect965" width="2.222" height="7.416" x="57.987" y="212.57"/><rect id="rect966" width="2.222" height="7.416" x="57.987" y="212.57"/><rect id="rect967" width="2.222" height="7.416" x="57.987" y="212.57"/><rect id="rect968" width="2.222" height="7.416" x="32.299" y="212.57" transform="translate(-.17213 -.000015259)"/><rect id="rect969" width="2.222" height="7.416" x="51.082" y="212.57"/><rect id="rect970" width="2.222" height="7.416" x="41.691" y="212.57" transform="translate(0 -.000015259)"/><rect id="rect971" width="2.222" height="9.962" x="217.76" y="-52.641" transform="rotate(90)"/><rect id="rect972" width="2.222" height="6.316" x="212" y="-53.304" transform="rotate(90)"/></g><g id="g992" fill="#fff" stroke-width="1pt" transform="matrix(1.4724 0 0 1.4724 -39.296 35.66)"><rect id="rect993" width="32.289" height="2.222" x="32.067" y="206.72"/><rect id="rect994" width="2.222" height="2.158" x="36.881" y="217.83"/><rect id="rect995" width="2.222" height="6.453" x="217.76" y="-64.44" transform="rotate(90)"/><rect id="rect996" width="2.222" height="13.266" x="67.911" y="206.72"/><rect id="rect997" width="2.222" height="12.229" x="217.76" y="-80.765" transform="rotate(90)"/><rect id="rect998" width="2.222" height="7.416" x="57.987" y="212.57"/><rect id="rect999" width="2.222" height="13.266" x="67.911" y="206.72" transform="translate(11.035 -.000015259)"/><rect id="rect1000" width="2.222" height="13.266" x="73.391" y="206.72"/><rect id="rect1001" width="2.222" height="11.785" x="212" y="-43.903" transform="matrix(0 1 -1 0 .0092220 -.000015259)"/><rect id="rect1002" width="2.222" height="11.785" x="212" y="-69.772" transform="rotate(90)"/><rect id="rect1003" width="2.222" height="7.416" x="57.987" y="212.57"/><rect id="rect1004" width="2.222" height="7.416" x="57.987" y="212.57"/><rect id="rect1005" width="2.222" height="7.416" x="57.987" y="212.57"/><rect id="rect1006" width="2.222" height="7.416" x="32.299" y="212.57" transform="translate(-.17213 -.000015259)"/><rect id="rect1007" width="2.222" height="7.416" x="51.082" y="212.57"/><rect id="rect1008" width="2.222" height="7.416" x="41.691" y="212.57" transform="translate(0 -.000015259)"/><rect id="rect1009" width="2.222" height="9.962" x="217.76" y="-52.641" transform="rotate(90)"/><rect id="rect1010" width="2.222" height="6.316" x="212" y="-53.304" transform="rotate(90)"/></g><g id="g1225" fill="#fff" stroke-width="1pt" transform="matrix(1.4724 0 0 1.4724 117.81 -165.4)"><rect id="rect1226" width="32.289" height="2.222" x="32.067" y="206.72"/><rect id="rect1227" width="2.222" height="2.158" x="36.881" y="217.83"/><rect id="rect1228" width="2.222" height="6.453" x="217.76" y="-64.44" transform="rotate(90)"/><rect id="rect1229" width="2.222" height="13.266" x="67.911" y="206.72"/><rect id="rect1230" width="2.222" height="12.229" x="217.76" y="-80.765" transform="rotate(90)"/><rect id="rect1231" width="2.222" height="7.416" x="57.987" y="212.57"/><rect id="rect1232" width="2.222" height="13.266" x="67.911" y="206.72" transform="translate(11.035 -.000015259)"/><rect id="rect1233" width="2.222" height="13.266" x="73.391" y="206.72"/><rect id="rect1234" width="2.222" height="11.785" x="212" y="-43.903" transform="matrix(0 1 -1 0 .0092220 -.000015259)"/><rect id="rect1235" width="2.222" height="11.785" x="212" y="-69.772" transform="rotate(90)"/><rect id="rect1236" width="2.222" height="7.416" x="57.987" y="212.57"/><rect id="rect1237" width="2.222" height="7.416" x="57.987" y="212.57"/><rect id="rect1238" width="2.222" height="7.416" x="57.987" y="212.57"/><rect id="rect1239" width="2.222" height="7.416" x="32.299" y="212.57" transform="translate(-.17213 -.000015259)"/><rect id="rect1240" width="2.222" height="7.416" x="51.082" y="212.57"/><rect id="rect1241" width="2.222" height="7.416" x="41.691" y="212.57" transform="translate(0 -.000015259)"/><rect id="rect1242" width="2.222" height="9.962" x="217.76" y="-52.641" transform="rotate(90)"/><rect id="rect1243" width="2.222" height="6.316" x="212" y="-53.304" transform="rotate(90)"/></g><g id="g1244" fill="#fff" stroke-width="1pt" transform="matrix(1.4724 0 0 1.4724 39.725 -165.4)"><rect id="rect1245" width="32.289" height="2.222" x="32.067" y="206.72"/><rect id="rect1246" width="2.222" height="2.158" x="36.881" y="217.83"/><rect id="rect1247" width="2.222" height="6.453" x="217.76" y="-64.44" transform="rotate(90)"/><rect id="rect1248" width="2.222" height="13.266" x="67.911" y="206.72"/><rect id="rect1249" width="2.222" height="12.229" x="217.76" y="-80.765" transform="rotate(90)"/><rect id="rect1250" width="2.222" height="7.416" x="57.987" y="212.57"/><rect id="rect1251" width="2.222" height="13.266" x="67.911" y="206.72" transform="translate(11.035 -.000015259)"/><rect id="rect1252" width="2.222" height="13.266" x="73.391" y="206.72"/><rect id="rect1253" width="2.222" height="11.785" x="212" y="-43.903" transform="matrix(0 1 -1 0 .0092220 -.000015259)"/><rect id="rect1254" width="2.222" height="11.785" x="212" y="-69.772" transform="rotate(90)"/><rect id="rect1255" width="2.222" height="7.416" x="57.987" y="212.57"/><rect id="rect1256" width="2.222" height="7.416" x="57.987" y="212.57"/><rect id="rect1257" width="2.222" height="7.416" x="57.987" y="212.57"/><rect id="rect1258" width="2.222" height="7.416" x="32.299" y="212.57" transform="translate(-.17213 -.000015259)"/><rect id="rect1259" width="2.222" height="7.416" x="51.082" y="212.57"/><rect id="rect1260" width="2.222" height="7.416" x="41.691" y="212.57" transform="translate(0 -.000015259)"/><rect id="rect1261" width="2.222" height="9.962" x="217.76" y="-52.641" transform="rotate(90)"/><rect id="rect1262" width="2.222" height="6.316" x="212" y="-53.304" transform="rotate(90)"/></g><g id="g1263" fill="#fff" stroke-width="1pt" transform="matrix(1.4724 0 0 1.4724 195.25 -165.4)"><rect id="rect1264" width="32.289" height="2.222" x="32.067" y="206.72"/><rect id="rect1265" width="2.222" height="2.158" x="36.881" y="217.83"/><rect id="rect1266" width="2.222" height="6.453" x="217.76" y="-64.44" transform="rotate(90)"/><rect id="rect1267" width="2.222" height="13.266" x="67.911" y="206.72"/><rect id="rect1268" width="2.222" height="12.229" x="217.76" y="-80.765" transform="rotate(90)"/><rect id="rect1269" width="2.222" height="7.416" x="57.987" y="212.57"/><rect id="rect1270" width="2.222" height="13.266" x="67.911" y="206.72" transform="translate(11.035 -.000015259)"/><rect id="rect1271" width="2.222" height="13.266" x="73.391" y="206.72"/><rect id="rect1272" width="2.222" height="11.785" x="212" y="-43.903" transform="matrix(0 1 -1 0 .0092220 -.000015259)"/><rect id="rect1273" width="2.222" height="11.785" x="212" y="-69.772" transform="rotate(90)"/><rect id="rect1274" width="2.222" height="7.416" x="57.987" y="212.57"/><rect id="rect1275" width="2.222" height="7.416" x="57.987" y="212.57"/><rect id="rect1276" width="2.222" height="7.416" x="57.987" y="212.57"/><rect id="rect1277" width="2.222" height="7.416" x="32.299" y="212.57" transform="translate(-.17213 -.000015259)"/><rect id="rect1278" width="2.222" height="7.416" x="51.082" y="212.57"/><rect id="rect1279" width="2.222" height="7.416" x="41.691" y="212.57" transform="translate(0 -.000015259)"/><rect id="rect1280" width="2.222" height="9.962" x="217.76" y="-52.641" transform="rotate(90)"/><rect id="rect1281" width="2.222" height="6.316" x="212" y="-53.304" transform="rotate(90)"/></g><g id="g1282" fill="#fff" stroke-width="1pt" transform="matrix(1.4724 0 0 1.4724 742.06 -165.4)"><rect id="rect1283" width="32.289" height="2.222" x="32.067" y="206.72"/><rect id="rect1284" width="2.222" height="2.158" x="36.881" y="217.83"/><rect id="rect1285" width="2.222" height="6.453" x="217.76" y="-64.44" transform="rotate(90)"/><rect id="rect1286" width="2.222" height="13.266" x="67.911" y="206.72"/><rect id="rect1287" width="2.222" height="12.229" x="217.76" y="-80.765" transform="rotate(90)"/><rect id="rect1288" width="2.222" height="7.416" x="57.987" y="212.57"/><rect id="rect1289" width="2.222" height="13.266" x="67.911" y="206.72" transform="translate(11.035 -.000015259)"/><rect id="rect1290" width="2.222" height="13.266" x="73.391" y="206.72"/><rect id="rect1291" width="2.222" height="11.785" x="212" y="-43.903" transform="matrix(0 1 -1 0 .0092220 -.000015259)"/><rect id="rect1292" width="2.222" height="11.785" x="212" y="-69.772" transform="rotate(90)"/><rect id="rect1293" width="2.222" height="7.416" x="57.987" y="212.57"/><rect id="rect1294" width="2.222" height="7.416" x="57.987" y="212.57"/><rect id="rect1295" width="2.222" height="7.416" x="57.987" y="212.57"/><rect id="rect1296" width="2.222" height="7.416" x="32.299" y="212.57" transform="translate(-.17213 -.000015259)"/><rect id="rect1297" width="2.222" height="7.416" x="51.082" y="212.57"/><rect id="rect1298" width="2.222" height="7.416" x="41.691" y="212.57" transform="translate(0 -.000015259)"/><rect id="rect1299" width="2.222" height="9.962" x="217.76" y="-52.641" transform="rotate(90)"/><rect id="rect1300" width="2.222" height="6.316" x="212" y="-53.304" transform="rotate(90)"/></g><g id="g1301" fill="#fff" stroke-width="1pt" transform="matrix(1.4724 0 0 1.4724 273.19 -165.4)"><rect id="rect1302" width="32.289" height="2.222" x="32.067" y="206.72"/><rect id="rect1303" width="2.222" height="2.158" x="36.881" y="217.83"/><rect id="rect1304" width="2.222" height="6.453" x="217.76" y="-64.44" transform="rotate(90)"/><rect id="rect1305" width="2.222" height="13.266" x="67.911" y="206.72"/><rect id="rect1306" width="2.222" height="12.229" x="217.76" y="-80.765" transform="rotate(90)"/><rect id="rect1307" width="2.222" height="7.416" x="57.987" y="212.57"/><rect id="rect1308" width="2.222" height="13.266" x="67.911" y="206.72" transform="translate(11.035 -.000015259)"/><rect id="rect1309" width="2.222" height="13.266" x="73.391" y="206.72"/><rect id="rect1310" width="2.222" height="11.785" x="212" y="-43.903" transform="matrix(0 1 -1 0 .0092220 -.000015259)"/><rect id="rect1311" width="2.222" height="11.785" x="212" y="-69.772" transform="rotate(90)"/><rect id="rect1312" width="2.222" height="7.416" x="57.987" y="212.57"/><rect id="rect1313" width="2.222" height="7.416" x="57.987" y="212.57"/><rect id="rect1314" width="2.222" height="7.416" x="57.987" y="212.57"/><rect id="rect1315" width="2.222" height="7.416" x="32.299" y="212.57" transform="translate(-.17213 -.000015259)"/><rect id="rect1316" width="2.222" height="7.416" x="51.082" y="212.57"/><rect id="rect1317" width="2.222" height="7.416" x="41.691" y="212.57" transform="translate(0 -.000015259)"/><rect id="rect1318" width="2.222" height="9.962" x="217.76" y="-52.641" transform="rotate(90)"/><rect id="rect1319" width="2.222" height="6.316" x="212" y="-53.304" transform="rotate(90)"/></g><g id="g1320" fill="#fff" stroke-width="1pt" transform="matrix(1.4724 0 0 1.4724 351.41 -165.4)"><rect id="rect1321" width="32.289" height="2.222" x="32.067" y="206.72"/><rect id="rect1322" width="2.222" height="2.158" x="36.881" y="217.83"/><rect id="rect1323" width="2.222" height="6.453" x="217.76" y="-64.44" transform="rotate(90)"/><rect id="rect1324" width="2.222" height="13.266" x="67.911" y="206.72"/><rect id="rect1325" width="2.222" height="12.229" x="217.76" y="-80.765" transform="rotate(90)"/><rect id="rect1326" width="2.222" height="7.416" x="57.987" y="212.57"/><rect id="rect1327" width="2.222" height="13.266" x="67.911" y="206.72" transform="translate(11.035 -.000015259)"/><rect id="rect1328" width="2.222" height="13.266" x="73.391" y="206.72"/><rect id="rect1329" width="2.222" height="11.785" x="212" y="-43.903" transform="matrix(0 1 -1 0 .0092220 -.000015259)"/><rect id="rect1330" width="2.222" height="11.785" x="212" y="-69.772" transform="rotate(90)"/><rect id="rect1331" width="2.222" height="7.416" x="57.987" y="212.57"/><rect id="rect1332" width="2.222" height="7.416" x="57.987" y="212.57"/><rect id="rect1333" width="2.222" height="7.416" x="57.987" y="212.57"/><rect id="rect1334" width="2.222" height="7.416" x="32.299" y="212.57" transform="translate(-.17213 -.000015259)"/><rect id="rect1335" width="2.222" height="7.416" x="51.082" y="212.57"/><rect id="rect1336" width="2.222" height="7.416" x="41.691" y="212.57" transform="translate(0 -.000015259)"/><rect id="rect1337" width="2.222" height="9.962" x="217.76" y="-52.641" transform="rotate(90)"/><rect id="rect1338" width="2.222" height="6.316" x="212" y="-53.304" transform="rotate(90)"/></g><g id="g1339" fill="#fff" stroke-width="1pt" transform="matrix(1.4724 0 0 1.4724 430.09 -165.4)"><rect id="rect1340" width="32.289" height="2.222" x="32.067" y="206.72"/><rect id="rect1341" width="2.222" height="2.158" x="36.881" y="217.83"/><rect id="rect1342" width="2.222" height="6.453" x="217.76" y="-64.44" transform="rotate(90)"/><rect id="rect1343" width="2.222" height="13.266" x="67.911" y="206.72"/><rect id="rect1344" width="2.222" height="12.229" x="217.76" y="-80.765" transform="rotate(90)"/><rect id="rect1345" width="2.222" height="7.416" x="57.987" y="212.57"/><rect id="rect1346" width="2.222" height="13.266" x="67.911" y="206.72" transform="translate(11.035 -.000015259)"/><rect id="rect1347" width="2.222" height="13.266" x="73.391" y="206.72"/><rect id="rect1348" width="2.222" height="11.785" x="212" y="-43.903" transform="matrix(0 1 -1 0 .0092220 -.000015259)"/><rect id="rect1349" width="2.222" height="11.785" x="212" y="-69.772" transform="rotate(90)"/><rect id="rect1350" width="2.222" height="7.416" x="57.987" y="212.57"/><rect id="rect1351" width="2.222" height="7.416" x="57.987" y="212.57"/><rect id="rect1352" width="2.222" height="7.416" x="57.987" y="212.57"/><rect id="rect1353" width="2.222" height="7.416" x="32.299" y="212.57" transform="translate(-.17213 -.000015259)"/><rect id="rect1354" width="2.222" height="7.416" x="51.082" y="212.57"/><rect id="rect1355" width="2.222" height="7.416" x="41.691" y="212.57" transform="translate(0 -.000015259)"/><rect id="rect1356" width="2.222" height="9.962" x="217.76" y="-52.641" transform="rotate(90)"/><rect id="rect1357" width="2.222" height="6.316" x="212" y="-53.304" transform="rotate(90)"/></g><g id="g1358" fill="#fff" stroke-width="1pt" transform="matrix(1.4724 0 0 1.4724 508.32 -165.4)"><rect id="rect1359" width="32.289" height="2.222" x="32.067" y="206.72"/><rect id="rect1360" width="2.222" height="2.158" x="36.881" y="217.83"/><rect id="rect1361" width="2.222" height="6.453" x="217.76" y="-64.44" transform="rotate(90)"/><rect id="rect1362" width="2.222" height="13.266" x="67.911" y="206.72"/><rect id="rect1363" width="2.222" height="12.229" x="217.76" y="-80.765" transform="rotate(90)"/><rect id="rect1364" width="2.222" height="7.416" x="57.987" y="212.57"/><rect id="rect1365" width="2.222" height="13.266" x="67.911" y="206.72" transform="translate(11.035 -.000015259)"/><rect id="rect1366" width="2.222" height="13.266" x="73.391" y="206.72"/><rect id="rect1367" width="2.222" height="11.785" x="212" y="-43.903" transform="matrix(0 1 -1 0 .0092220 -.000015259)"/><rect id="rect1368" width="2.222" height="11.785" x="212" y="-69.772" transform="rotate(90)"/><rect id="rect1369" width="2.222" height="7.416" x="57.987" y="212.57"/><rect id="rect1370" width="2.222" height="7.416" x="57.987" y="212.57"/><rect id="rect1371" width="2.222" height="7.416" x="57.987" y="212.57"/><rect id="rect1372" width="2.222" height="7.416" x="32.299" y="212.57" transform="translate(-.17213 -.000015259)"/><rect id="rect1373" width="2.222" height="7.416" x="51.082" y="212.57"/><rect id="rect1374" width="2.222" height="7.416" x="41.691" y="212.57" transform="translate(0 -.000015259)"/><rect id="rect1375" width="2.222" height="9.962" x="217.76" y="-52.641" transform="rotate(90)"/><rect id="rect1376" width="2.222" height="6.316" x="212" y="-53.304" transform="rotate(90)"/></g><g id="g1377" fill="#fff" stroke-width="1pt" transform="matrix(1.4724 0 0 1.4724 586.54 -165.4)"><rect id="rect1378" width="32.289" height="2.222" x="32.067" y="206.72"/><rect id="rect1379" width="2.222" height="2.158" x="36.881" y="217.83"/><rect id="rect1380" width="2.222" height="6.453" x="217.76" y="-64.44" transform="rotate(90)"/><rect id="rect1381" width="2.222" height="13.266" x="67.911" y="206.72"/><rect id="rect1382" width="2.222" height="12.229" x="217.76" y="-80.765" transform="rotate(90)"/><rect id="rect1383" width="2.222" height="7.416" x="57.987" y="212.57"/><rect id="rect1384" width="2.222" height="13.266" x="67.911" y="206.72" transform="translate(11.035 -.000015259)"/><rect id="rect1385" width="2.222" height="13.266" x="73.391" y="206.72"/><rect id="rect1386" width="2.222" height="11.785" x="212" y="-43.903" transform="matrix(0 1 -1 0 .0092220 -.000015259)"/><rect id="rect1387" width="2.222" height="11.785" x="212" y="-69.772" transform="rotate(90)"/><rect id="rect1388" width="2.222" height="7.416" x="57.987" y="212.57"/><rect id="rect1389" width="2.222" height="7.416" x="57.987" y="212.57"/><rect id="rect1390" width="2.222" height="7.416" x="57.987" y="212.57"/><rect id="rect1391" width="2.222" height="7.416" x="32.299" y="212.57" transform="translate(-.17213 -.000015259)"/><rect id="rect1392" width="2.222" height="7.416" x="51.082" y="212.57"/><rect id="rect1393" width="2.222" height="7.416" x="41.691" y="212.57" transform="translate(0 -.000015259)"/><rect id="rect1394" width="2.222" height="9.962" x="217.76" y="-52.641" transform="rotate(90)"/><rect id="rect1395" width="2.222" height="6.316" x="212" y="-53.304" transform="rotate(90)"/></g><g id="g1396" fill="#fff" stroke-width="1pt" transform="matrix(1.4724 0 0 1.4724 665.22 -165.4)"><rect id="rect1397" width="32.289" height="2.222" x="32.067" y="206.72"/><rect id="rect1398" width="2.222" height="2.158" x="36.881" y="217.83"/><rect id="rect1399" width="2.222" height="6.453" x="217.76" y="-64.44" transform="rotate(90)"/><rect id="rect1400" width="2.222" height="13.266" x="67.911" y="206.72"/><rect id="rect1401" width="2.222" height="12.229" x="217.76" y="-80.765" transform="rotate(90)"/><rect id="rect1402" width="2.222" height="7.416" x="57.987" y="212.57"/><rect id="rect1403" width="2.222" height="13.266" x="67.911" y="206.72" transform="translate(11.035 -.000015259)"/><rect id="rect1404" width="2.222" height="13.266" x="73.391" y="206.72"/><rect id="rect1405" width="2.222" height="11.785" x="212" y="-43.903" transform="matrix(0 1 -1 0 .0092220 -.000015259)"/><rect id="rect1406" width="2.222" height="11.785" x="212" y="-69.772" transform="rotate(90)"/><rect id="rect1407" width="2.222" height="7.416" x="57.987" y="212.57"/><rect id="rect1408" width="2.222" height="7.416" x="57.987" y="212.57"/><rect id="rect1409" width="2.222" height="7.416" x="57.987" y="212.57"/><rect id="rect1410" width="2.222" height="7.416" x="32.299" y="212.57" transform="translate(-.17213 -.000015259)"/><rect id="rect1411" width="2.222" height="7.416" x="51.082" y="212.57"/><rect id="rect1412" width="2.222" height="7.416" x="41.691" y="212.57" transform="translate(0 -.000015259)"/><rect id="rect1413" width="2.222" height="9.962" x="217.76" y="-52.641" transform="rotate(90)"/><rect id="rect1414" width="2.222" height="6.316" x="212" y="-53.304" transform="rotate(90)"/></g><g id="g1415" fill="#fff" stroke-width="1pt" transform="matrix(1.4724 0 0 1.4724 -39.296 -165.4)"><rect id="rect1416" width="32.289" height="2.222" x="32.067" y="206.72"/><rect id="rect1417" width="2.222" height="2.158" x="36.881" y="217.83"/><rect id="rect1418" width="2.222" height="6.453" x="217.76" y="-64.44" transform="rotate(90)"/><rect id="rect1419" width="2.222" height="13.266" x="67.911" y="206.72"/><rect id="rect1420" width="2.222" height="12.229" x="217.76" y="-80.765" transform="rotate(90)"/><rect id="rect1421" width="2.222" height="7.416" x="57.987" y="212.57"/><rect id="rect1422" width="2.222" height="13.266" x="67.911" y="206.72" transform="translate(11.035 -.000015259)"/><rect id="rect1423" width="2.222" height="13.266" x="73.391" y="206.72"/><rect id="rect1424" width="2.222" height="11.785" x="212" y="-43.903" transform="matrix(0 1 -1 0 .0092220 -.000015259)"/><rect id="rect1425" width="2.222" height="11.785" x="212" y="-69.772" transform="rotate(90)"/><rect id="rect1426" width="2.222" height="7.416" x="57.987" y="212.57"/><rect id="rect1427" width="2.222" height="7.416" x="57.987" y="212.57"/><rect id="rect1428" width="2.222" height="7.416" x="57.987" y="212.57"/><rect id="rect1429" width="2.222" height="7.416" x="32.299" y="212.57" transform="translate(-.17213 -.000015259)"/><rect id="rect1430" width="2.222" height="7.416" x="51.082" y="212.57"/><rect id="rect1431" width="2.222" height="7.416" x="41.691" y="212.57" transform="translate(0 -.000015259)"/><rect id="rect1432" width="2.222" height="9.962" x="217.76" y="-52.641" transform="rotate(90)"/><rect id="rect1433" width="2.222" height="6.316" x="212" y="-53.304" transform="rotate(90)"/></g><g id="g1668" fill="#d90000" stroke-width="1pt" transform="translate(0 171.39)"><rect id="rect1224" width="5.86" height="10.178" x="119.3" y="157.55"/><rect id="rect1645" width="5.86" height="10.178" x="274.84" y="157.55"/><rect id="rect1646" width="5.86" height="10.178" x="-.042" y="157.55"/><rect id="rect1647" width="5.86" height="10.178" x="39.308" y="157.55" transform="translate(39.591 -.000015259)"/><rect id="rect1648" width="5.86" height="10.178" x="39.308" y="157.55" transform="translate(117.97 -.000015259)"/><rect id="rect1649" width="5.86" height="10.178" x="39.308" y="157.55" transform="translate(156.75 -.000015259)"/><rect id="rect1650" width="5.86" height="10.178" x="39.308" y="157.55" transform="translate(196.34 -.000015259)"/><rect id="rect1651" width="5.86" height="10.178" x="313.62" y="157.55"/><rect id="rect1652" width="5.86" height="10.178" x="510.36" y="157.55"/><rect id="rect1653" width="5.86" height="10.178" x="39.308" y="157.55" transform="translate(313.9 -.000015259)"/><rect id="rect1654" width="5.86" height="10.178" x="39.308" y="157.55" transform="translate(352.69 -.000015259)"/><rect id="rect1655" width="5.86" height="10.178" x="39.308" y="157.55" transform="translate(391.87 -.000015259)"/><rect id="rect1656" width="5.86" height="10.178" x="39.308" y="157.55" transform="translate(431.06 -.000015259)"/><rect id="rect1657" width="5.86" height="10.178" x="783.46" y="157.55"/><rect id="rect1658" width="5.86" height="10.178" x="39.308" y="157.55" transform="translate(509.03 -.000015259)"/><rect id="rect1659" width="5.86" height="10.178" x="39.308" y="157.55" transform="translate(548.62 -.000015259)"/><rect id="rect1660" width="5.86" height="10.178" x="39.308" y="157.55" transform="translate(588.62 -.000015259)"/><rect id="rect1661" width="5.86" height="10.178" x="39.308" y="157.55" transform="translate(626.19 -.000015259)"/><rect id="rect1662" width="5.86" height="10.178" x="39.308" y="157.55" transform="translate(666.18 -.000015259)"/><rect id="rect1663" width="5.86" height="10.178" x="39.308" y="157.55" transform="translate(705.37 -.000015259)"/><rect id="rect1664" width="5.86" height="10.178" x="860.63" y="157.55"/><rect id="rect1665" width="5.86" height="10.178" x="39.308" y="157.55" transform="translate(783.75 -.000015259)"/><rect id="rect1667" width="5.86" height="10.178" x="39.308" y="157.55"/></g><g id="g1692" fill="#239e3f" stroke-width="1pt" transform="translate(0 -.000015259)"><rect id="rect1693" width="5.86" height="10.178" x="119.3" y="157.55"/><rect id="rect1694" width="5.86" height="10.178" x="274.84" y="157.55"/><rect id="rect1695" width="5.86" height="10.178" x="-.042" y="157.55"/><rect id="rect1696" width="5.86" height="10.178" x="39.308" y="157.55" transform="translate(39.591 -.000015259)"/><rect id="rect1697" width="5.86" height="10.178" x="39.308" y="157.55" transform="translate(117.97 -.000015259)"/><rect id="rect1698" width="5.86" height="10.178" x="39.308" y="157.55" transform="translate(156.75 -.000015259)"/><rect id="rect1699" width="5.86" height="10.178" x="39.308" y="157.55" transform="translate(196.34 -.000015259)"/><rect id="rect1700" width="5.86" height="10.178" x="313.62" y="157.55"/><rect id="rect1701" width="5.86" height="10.178" x="510.36" y="157.55"/><rect id="rect1702" width="5.86" height="10.178" x="39.308" y="157.55" transform="translate(313.9 -.000015259)"/><rect id="rect1703" width="5.86" height="10.178" x="39.308" y="157.55" transform="translate(352.69 -.000015259)"/><rect id="rect1704" width="5.86" height="10.178" x="39.308" y="157.55" transform="translate(391.87 -.000015259)"/><rect id="rect1705" width="5.86" height="10.178" x="39.308" y="157.55" transform="translate(431.06 -.000015259)"/><rect id="rect1706" width="5.86" height="10.178" x="783.46" y="157.55"/><rect id="rect1707" width="5.86" height="10.178" x="39.308" y="157.55" transform="translate(509.03 -.000015259)"/><rect id="rect1708" width="5.86" height="10.178" x="39.308" y="157.55" transform="translate(548.62 -.000015259)"/><rect id="rect1709" width="5.86" height="10.178" x="39.308" y="157.55" transform="translate(588.62 -.000015259)"/><rect id="rect1710" width="5.86" height="10.178" x="39.308" y="157.55" transform="translate(626.19 -.000015259)"/><rect id="rect1711" width="5.86" height="10.178" x="39.308" y="157.55" transform="translate(666.18 -.000015259)"/><rect id="rect1712" width="5.86" height="10.178" x="39.308" y="157.55" transform="translate(705.37 -.000015259)"/><rect id="rect1713" width="5.86" height="10.178" x="860.63" y="157.55"/><rect id="rect1714" width="5.86" height="10.178" x="39.308" y="157.55" transform="translate(783.75 -.000015259)"/><rect id="rect1715" width="5.86" height="10.178" x="39.308" y="157.55"/></g><g id="g1043" fill="#da0000" transform="translate(11.919 -515.45)"><path id="path1928" d="m445.16 706.81c8.19 10.039 33.438 65.548-15.241 101.91-22.884 17.223-8.714 18.093-8.037 20.988 36.785-19.539 48.799-46.013 48.52-69.727-0.28-23.715-12.853-44.669-25.242-53.167z"/><path id="path1929" d="m450.03 704.23c18.166 9.301 57.701 56.079 15.149 108.85 26.439-5.868 60.053-83.729-15.149-108.85z"/><path id="path1930" d="m394.24 704.23c-18.166 9.301-57.701 56.079-15.149 108.85-26.439-5.868-60.053-83.729 15.149-108.85z"/><path id="path1931" d="m399.04 706.81c-8.19 10.039-33.438 65.548 15.241 101.91 22.884 17.223 8.714 18.093 8.037 20.988-36.785-19.539-48.799-46.013-48.52-69.727 0.28-23.715 12.853-44.669 25.242-53.167z"/><path id="path1932" d="m468.8 824.65c-14.398 0.228-32.549-1.984-46.01-8.979 2.217 4.311 4.059 7.026 6.276 11.337 12.838 1.184 30.554 2.649 39.734-2.358z"/><path id="path1933" d="m376.78 824.65c14.398 0.228 32.549-1.984 46.01-8.979-2.217 4.311-4.059 7.026-6.276 11.337-12.838 1.184-30.554 2.649-39.734-2.358z"/><path id="path1934" d="m403.19 690.25c2.917 7.753 10.57 8.88 18.762 4.315 5.97 3.582 15.202 3.809 18.386-3.94 2.421 19.169-17.736 14.634-18.487 10.882-7.504 7.254-21.475 3.064-18.661-11.257z"/><path id="path1042" d="m422.49 836.72 7.57-8.652 1.082-116.44-9.012-7.931-9.012 7.57 1.802 117.16 7.57 8.291z"/></g></g></svg>