<svg xmlns="http://www.w3.org/2000/svg" id="svg548" width="512" height="512" x="0" y="0" version="1"><metadata id="metadata4629"/><defs id="defs550"><clipPath id="clipPath5782" clipPathUnits="userSpaceOnUse"><rect id="rect5784" width="493.5" height="493.5" x="113.56" y="0" fill-opacity=".67"/></clipPath></defs><g id="flag" clip-path="url(#clipPath5782)" transform="matrix(1.0375 0 0 1.0375 -117.82 .00001745)"><g id="g558" fill-rule="evenodd" stroke-width="1pt" transform="scale(23.5)"><rect id="rect551" width="42" height="7" x="0" y="0"/><rect id="rect552" width="42" height="7" x="0" y="7" fill="#fff"/><rect id="rect553" width="42" height="7" x="0" y="14" fill="#090"/><path id="path554" fill="red" d="m0 21 21-10.5-21-10.5v21z"/><polygon id="polygon557" fill="#fff" points="7.011 10.381 7.952 10.834 6.908 10.834 7.14 11.852 6.489 11.035 5.838 11.852 6.071 10.834 5.027 10.834 5.967 10.381 5.317 9.565 6.257 10.018 6.489 9 6.489 9 6.722 10.018 7.662 9.565"/></g></g></svg>