<svg xmlns="http://www.w3.org/2000/svg" id="svg660" width="512" height="512" version="1.1"><metadata id="metadata4850"/><defs id="defs662"><clipPath id="clipPath4980" clipPathUnits="userSpaceOnUse"><rect id="rect4982" width="416.25" height="416.25" x="0" y="0" fill-opacity=".67"/></clipPath></defs><g id="flag" fill-rule="evenodd" clip-path="url(#clipPath4980)" transform="matrix(1.23 0 0 1.23 0 .000016587)"><rect id="rect665" width="625" height="104.06" x="0" y="0" fill="#ff0" stroke-width="1pt"/><rect id="rect668" width="625" height="104.06" x="0" y="104.06" fill="#fff" stroke-width="1pt"/><rect id="rect667" width="625" height="104.06" x="0" y="208.12" fill="#be0027" stroke-width="1pt"/><rect id="rect666" width="625" height="104.06" x="0" y="312.19" fill="#3b5aa3" stroke-width="1pt"/><path id="path664" fill="#239e46" d="m0 0.75619v415.49l310.45-207.16-310.45-208.33z" transform="matrix(1 0 0 1.0018 0 -.75756)"/><path id="path673" fill="#fff" d="m127.81 114.98c-69.183-3.51-100.7 51.6-100.63 94.2-0.159 50.38 47.582 91.93 91.71 89.43-23.794-11.26-52.85-42.82-53.117-89.64-0.2436-42.423 23.977-79.31 62.038-93.99z"/><polygon id="polygon674" fill="#fff" stroke-width="1pt" d="m 126.77341,160.21338 -9.75793,-7.62986 -11.8172,3.71287 4.24106,-11.63809 -7.18286,-10.0915 12.37904,0.43712 7.37795,-9.94975 3.40961,11.90825 11.74269,3.94221 -10.27179,6.92258 z" points="126.77 160.21 117.02 152.58 105.2 156.3 109.44 144.66 102.26 134.57 114.64 135 122.01 125.05 125.42 136.96 137.17 140.9 126.89 147.83"/><polygon id="polygon675" fill="#fff" stroke-width="1pt" d="m 126.77341,160.21338 -9.75793,-7.62986 -11.8172,3.71287 4.24106,-11.63809 -7.18286,-10.0915 12.37904,0.43712 7.37795,-9.94975 3.40961,11.90825 11.74269,3.94221 -10.27179,6.92258 z" points="126.77 160.21 117.02 152.58 105.2 156.3 109.44 144.66 102.26 134.57 114.64 135 122.01 125.05 125.42 136.96 137.17 140.9 126.89 147.83" transform="translate(-.20749 42.327)"/><polygon id="polygon676" fill="#fff" stroke-width="1pt" d="m 126.77341,160.21338 -9.75793,-7.62986 -11.8172,3.71287 4.24106,-11.63809 -7.18286,-10.0915 12.37904,0.43712 7.37795,-9.94975 3.40961,11.90825 11.74269,3.94221 -10.27179,6.92258 z" points="126.77 160.21 117.02 152.58 105.2 156.3 109.44 144.66 102.26 134.57 114.64 135 122.01 125.05 125.42 136.96 137.17 140.9 126.89 147.83" transform="translate(-.0000096112 85.069)"/><polygon id="polygon677" fill="#fff" stroke-width="1pt" d="m 126.77341,160.21338 -9.75793,-7.62986 -11.8172,3.71287 4.24106,-11.63809 -7.18286,-10.0915 12.37904,0.43712 7.37795,-9.94975 3.40961,11.90825 11.74269,3.94221 -10.27179,6.92258 z" points="126.77 160.21 117.02 152.58 105.2 156.3 109.44 144.66 102.26 134.57 114.64 135 122.01 125.05 125.42 136.96 137.17 140.9 126.89 147.83" transform="translate(-.20749 128.23)"/></g></svg>