<svg xmlns="http://www.w3.org/2000/svg" id="svg378" width="512" height="512" x="0" y="0" version="1"><metadata id="metadata4863"/><defs id="defs380"><clipPath id="clipPath4933" clipPathUnits="userSpaceOnUse"><rect id="rect4935" width="745.12" height="745.12" x="151.69" y="-.347" fill-opacity=".67"/></clipPath></defs><g id="flag" fill-rule="evenodd" clip-path="url(#clipPath4933)" transform="matrix(.68714 0 0 .68714 -104.23 .23857)"><rect id="rect628" width="1073.5" height="744.09" x="1144.3" y="145.85" fill="#ffe900" transform="translate(-1149.6 -145.85)"/><path id="path623" fill="#35a100" d="m-2.6622-3.5704 1.246 536.41 835.33-536.76-836.57 0.3496z" transform="translate(-3.1757 3.5705)"/><path id="path624" fill="#c70000" d="m1069.5 744.09-1.9-557.75-842.62 558.17 844.52-0.42z"/><path id="path625" d="m-2.1244 573.28 0.70812 167.92 182.28-0.24 890.3-596.88-1-146l-180.14-1.6504-892.18 576.85z" transform="translate(-3.1757 3.5705)"/><polygon id="polygon136" fill="#fff" points="591.04 433.16 533.77 391.48 476.5 433.15 498.45 365.81 441.12 324.21 511.95 324.28 533.78 256.9 555.61 324.28 626.44 324.23 569.1 365.81" transform="matrix(.78140 -.50566 .46724 .74860 153.82 243.69)"/><polygon id="polygon638" fill="#fff" points="591.04 433.16 533.77 391.48 476.5 433.15 498.45 365.81 441.12 324.21 511.95 324.28 533.78 256.9 555.61 324.28 626.44 324.23 569.1 365.81" transform="matrix(.78140 -.50566 .46724 .74860 -246.76 504.07)"/></g></svg>