<svg xmlns="http://www.w3.org/2000/svg" id="svg378" width="512" height="512" x="0" y="0" version="1"><metadata id="metadata11"/><defs id="defs380"><clipPath id="clipPath9232" clipPathUnits="userSpaceOnUse"><rect id="rect9234" width="593.6" height="485.5" x="92.213" y="7.828" fill-opacity=".67"/></clipPath></defs><g id="flag" fill-rule="evenodd" clip-path="url(#clipPath9232)" transform="matrix(.86254 0 0 1.0546 -79.537 -8.2554)"><rect id="rect149" width="987.63" height="484.5" x="-991.81" y="-492.88" fill="#fff" stroke="#000" stroke-width="1.063" transform="scale(-1)"/><rect id="rect148" width="987.63" height="87.672" x="-991.81" y="405.21" fill="#3e5698" stroke-width="1pt" transform="scale(-1,1)"/><rect id="rect605" width="987.63" height="268.55" x="-991.81" y="-384.9" fill="#c60000" stroke-width="1pt" transform="scale(-1)"/><rect id="rect606" width="987.63" height="87.672" x="-991.81" y="8.374" fill="#3e5698" stroke-width="1pt" transform="scale(-1,1)"/><path id="path607" fill="#fff" d="m495.86 1148c0 90.46-73.332 163.79-163.79 163.79-90.46 0-163.79-73.332-163.79-163.79 0-90.46 73.332-163.79 163.79-163.79 90.46 0 163.79 73.332 163.79 163.79z" transform="matrix(.83963 0 0 .66512 56.749 -512.91)"/><polygon id="polygon136" fill="#c40000" points="591.04 433.16 591.04 433.16 533.77 391.48 476.5 433.15 498.45 365.81 441.12 324.21 511.95 324.28 533.78 256.9 555.61 324.28 626.44 324.23 569.1 365.81" transform="matrix(1.163 -.0047865 -.012663 .93245 -279.04 -74.321)"/></g></svg>