<svg xmlns="http://www.w3.org/2000/svg" id="svg378" width="512" height="512" x="0" y="0" version="1"><metadata id="metadata3847"/><defs id="defs380"><clipPath id="clipPath6009" clipPathUnits="userSpaceOnUse"><rect id="rect6011" width="708.66" height="708.66" x="179.71" y="0" fill-opacity=".67"/></clipPath></defs><g id="flag" fill-rule="evenodd" stroke-width="1pt" clip-path="url(#clipPath6009)" transform="matrix(.72249 0 0 .72249 -129.84 -.0000023316)"><rect id="rect171" width="1063" height="708.66" x="0" y="0" fill="#f41408"/><rect id="rect256" width="1063" height="236.22" x="0" y="472.44" fill="#21873b" transform="translate(0 .00028121)"/><rect id="rect255" width="1063" height="236.22" x="0" y="0"/><path id="path386" fill="#f31509" d="m259.71 214.67c61.43-149.6 232.71-221.16 382.31-159.73 75.34 30.936 128.71 84.28 159.68 159.62l-541.99 0.112z" transform="matrix(.50262 0 0 .50262 270.88 106.14)"/><path id="path353" fill="#f31509" d="m537.98 92.591c-5.966-31.997-7.592-67.247-7.05-73.212 0.542-5.9654 3.796-7.0501 6.507-7.0501 2.712 0 6.508 2.7116 6.508 7.05 0 8.1348 0.001 41.216-5.965 73.213z" transform="matrix(.25573 -.96675 .96675 .25573 138.38 720.17)"/><path id="path354" fill="#f31509" d="m537.98 92.591c-5.966-31.997-7.592-67.247-7.05-73.212 0.542-5.9654 3.796-7.0501 6.507-7.0501 2.712 0 6.508 2.7116 6.508 7.05 0 8.1348 0.001 41.216-5.965 73.213z" transform="matrix(.99999 .0044170 -.0044170 .99999 .41417 -2.3438)"/><path id="path355" fill="#f31509" d="m537.98 92.591c-5.966-31.997-7.592-67.247-7.05-73.212 0.542-5.9654 3.796-7.0501 6.507-7.0501 2.712 0 6.508 2.7116 6.508 7.05 0 8.1348 0.001 41.216-5.965 73.213z" transform="matrix(.99593 .090083 -.090083 .99593 26.501 -47.312)"/><path id="path356" fill="#f31509" d="m537.98 92.591c-5.966-31.997-7.592-67.247-7.05-73.212 0.542-5.9654 3.796-7.0501 6.507-7.0501 2.712 0 6.508 2.7116 6.508 7.05 0 8.1348 0.001 41.216-5.965 73.213z" transform="matrix(.98514 .17173 -.17173 .98514 54.338 -88.274)"/><path id="path357" fill="#f31509" d="m537.98 92.591c-5.966-31.997-7.592-67.247-7.05-73.212 0.542-5.9654 3.796-7.0501 6.507-7.0501 2.712 0 6.508 2.7116 6.508 7.05 0 8.1348 0.001 41.216-5.965 73.213z" transform="matrix(.96622 .25773 -.25773 .96622 87.724 -129.38)"/><path id="path358" fill="#f31509" d="m537.98 92.591c-5.966-31.997-7.592-67.247-7.05-73.212 0.542-5.9654 3.796-7.0501 6.507-7.0501 2.712 0 6.508 2.7116 6.508 7.05 0 8.1348 0.001 41.216-5.965 73.213z" transform="matrix(.93952 .34248 -.34248 .93952 124.94 -167.72)"/><path id="path359" fill="#f31509" d="m537.98 92.591c-5.966-31.997-7.592-67.247-7.05-73.212 0.542-5.9654 3.796-7.0501 6.507-7.0501 2.712 0 6.508 2.7116 6.508 7.05 0 8.1348 0.001 41.216-5.965 73.213z" transform="matrix(.90680 .42155 -.42155 .90680 163.87 -201.38)"/><path id="path360" fill="#f31509" d="m537.98 92.591c-5.966-31.997-7.592-67.247-7.05-73.212 0.542-5.9654 3.796-7.0501 6.507-7.0501 2.712 0 6.508 2.7116 6.508 7.05 0 8.1348 0.001 41.216-5.965 73.213z" transform="matrix(.86641 .49933 -.49933 .86641 206.57 -232.27)"/><path id="path361" fill="#f31509" d="m537.98 92.591c-5.966-31.997-7.592-67.247-7.05-73.212 0.542-5.9654 3.796-7.0501 6.507-7.0501 2.712 0 6.508 2.7116 6.508 7.05 0 8.1348 0.001 41.216-5.965 73.213z" transform="matrix(.81960 .57294 -.57294 .81960 251.6 -259.19)"/><path id="path362" fill="#f31509" d="m537.98 92.591c-5.966-31.997-7.592-67.247-7.05-73.212 0.542-5.9654 3.796-7.0501 6.507-7.0501 2.712 0 6.508 2.7116 6.508 7.05 0 8.1348 0.001 41.216-5.965 73.213z" transform="matrix(.76646 .64229 -.64229 .76646 298.87 -282.12)"/><path id="path363" fill="#f31509" d="m537.98 92.591c-5.966-31.997-7.592-67.247-7.05-73.212 0.542-5.9654 3.796-7.0501 6.507-7.0501 2.712 0 6.508 2.7116 6.508 7.05 0 8.1348 0.001 41.216-5.965 73.213z" transform="matrix(.70734 .70687 -.70687 .70734 348.08 -300.87)"/><path id="path364" fill="#f31509" d="m537.98 92.591c-5.966-31.997-7.592-67.247-7.05-73.212 0.542-5.9654 3.796-7.0501 6.507-7.0501 2.712 0 6.508 2.7116 6.508 7.05 0 8.1348 0.001 41.216-5.965 73.213z" transform="matrix(.64260 .76620 -.76620 .64260 398.88 -315.27)"/><path id="path365" fill="#f31509" d="m537.98 92.591c-5.966-31.997-7.592-67.247-7.05-73.212 0.542-5.9654 3.796-7.0501 6.507-7.0501 2.712 0 6.508 2.7116 6.508 7.05 0 8.1348 0.001 41.216-5.965 73.213z" transform="matrix(.5762 .81731 -.81731 .5762 448.36 -324.81)"/><path id="path366" fill="#f31509" d="m537.98 92.591c-5.966-31.997-7.592-67.247-7.05-73.212 0.542-5.9654 3.796-7.0501 6.507-7.0501 2.712 0 6.508 2.7116 6.508 7.05 0 8.1348 0.001 41.216-5.965 73.213z" transform="matrix(.50416 .86361 -.86361 .50416 499.57 -330.25)"/><path id="path367" fill="#f31509" d="m537.98 92.591c-5.966-31.997-7.592-67.247-7.05-73.212 0.542-5.9654 3.796-7.0501 6.507-7.0501 2.712 0 6.508 2.7116 6.508 7.05 0 8.1348 0.001 41.216-5.965 73.213z" transform="matrix(.42204 .90658 -.90658 .42204 555.3 -331.17)"/><path id="path368" fill="#f31509" d="m537.98 92.591c-5.966-31.997-7.592-67.247-7.05-73.212 0.542-5.9654 3.796-7.0501 6.507-7.0501 2.712 0 6.508 2.7116 6.508 7.05 0 8.1348 0.001 41.216-5.965 73.213z" transform="matrix(.34272 .93944 -.93944 .34272 606.79 -327.42)"/><path id="path369" fill="#f31509" d="m537.98 92.591c-5.966-31.997-7.592-67.247-7.05-73.212 0.542-5.9654 3.796-7.0501 6.507-7.0501 2.712 0 6.508 2.7116 6.508 7.05 0 8.1348 0.001 41.216-5.965 73.213z" transform="matrix(.25861 .96598 -.96598 .25861 659.16 -318.98)"/><path id="path370" fill="#f31509" d="m537.98 92.591c-5.966-31.997-7.592-67.247-7.05-73.212 0.542-5.9654 3.796-7.0501 6.507-7.0501 2.712 0 6.508 2.7116 6.508 7.05 0 8.1348 0.001 41.216-5.965 73.213z" transform="matrix(.99611 -.088093 .088093 .99611 -21.69 48.389)"/><path id="path371" fill="#f31509" d="m537.98 92.591c-5.966-31.997-7.592-67.247-7.05-73.212 0.542-5.9654 3.796-7.0501 6.507-7.0501 2.712 0 6.508 2.7116 6.508 7.05 0 8.1348 0.001 41.216-5.965 73.213z" transform="matrix(.98462 -.17471 .17471 .98462 -38.894 98.036)"/><path id="path372" fill="#f31509" d="m537.98 92.591c-5.966-31.997-7.592-67.247-7.05-73.212 0.542-5.9654 3.796-7.0501 6.507-7.0501 2.712 0 6.508 2.7116 6.508 7.05 0 8.1348 0.001 41.216-5.965 73.213z" transform="matrix(.96540 -.26078 .26078 .96540 -51.798 149.48)"/><path id="path373" fill="#f31509" d="m537.98 92.591c-5.966-31.997-7.592-67.247-7.05-73.212 0.542-5.9654 3.796-7.0501 6.507-7.0501 2.712 0 6.508 2.7116 6.508 7.05 0 8.1348 0.001 41.216-5.965 73.213z" transform="matrix(.93977 -.34181 .34181 .93977 -59.897 199.94)"/><path id="path374" fill="#f31509" d="m537.98 92.591c-5.966-31.997-7.592-67.247-7.05-73.212 0.542-5.9654 3.796-7.0501 6.507-7.0501 2.712 0 6.508 2.7116 6.508 7.05 0 8.1348 0.001 41.216-5.965 73.213z" transform="matrix(.90704 -.42105 .42105 .90704 -63.697 251.36)"/><path id="path375" fill="#f31509" d="m537.98 92.591c-5.966-31.997-7.592-67.247-7.05-73.212 0.542-5.9654 3.796-7.0501 6.507-7.0501 2.712 0 6.508 2.7116 6.508 7.05 0 8.1348 0.001 41.216-5.965 73.213z" transform="matrix(.86543 -.50104 .50104 .86543 -62.926 305.58)"/><path id="path376" fill="#f31509" d="m537.98 92.591c-5.966-31.997-7.592-67.247-7.05-73.212 0.542-5.9654 3.796-7.0501 6.507-7.0501 2.712 0 6.508 2.7116 6.508 7.05 0 8.1348 0.001 41.216-5.965 73.213z" transform="matrix(.81895 -.57387 .57387 .81895 -57.608 357.26)"/><path id="path377" fill="#f31509" d="m537.98 92.591c-5.966-31.997-7.592-67.247-7.05-73.212 0.542-5.9654 3.796-7.0501 6.507-7.0501 2.712 0 6.508 2.7116 6.508 7.05 0 8.1348 0.001 41.216-5.965 73.213z" transform="matrix(.76699 -.64166 .64166 .76699 -48.051 407.66)"/><path id="path378" fill="#f31509" d="m537.98 92.591c-5.966-31.997-7.592-67.247-7.05-73.212 0.542-5.9654 3.796-7.0501 6.507-7.0501 2.712 0 6.508 2.7116 6.508 7.05 0 8.1348 0.001 41.216-5.965 73.213z" transform="matrix(.70672 -.70749 .70749 .70672 -33.508 459.26)"/><path id="path379" fill="#f31509" d="m537.98 92.591c-5.966-31.997-7.592-67.247-7.05-73.212 0.542-5.9654 3.796-7.0501 6.507-7.0501 2.712 0 6.508 2.7116 6.508 7.05 0 8.1348 0.001 41.216-5.965 73.213z" transform="matrix(.64494 -.76423 .76423 .64494 -15.696 506.38)"/><path id="path380" fill="#f31509" d="m537.98 92.591c-5.966-31.997-7.592-67.247-7.05-73.212 0.542-5.9654 3.796-7.0501 6.507-7.0501 2.712 0 6.508 2.7116 6.508 7.05 0 8.1348 0.001 41.216-5.965 73.213z" transform="matrix(.57445 -.81854 .81854 .57445 7.4468 554.56)"/><path id="path381" fill="#f31509" d="m537.98 92.591c-5.966-31.997-7.592-67.247-7.05-73.212 0.542-5.9654 3.796-7.0501 6.507-7.0501 2.712 0 6.508 2.7116 6.508 7.05 0 8.1348 0.001 41.216-5.965 73.213z" transform="matrix(.49823 -.86705 .86705 .49823 35.23 601.18)"/><path id="path382" fill="#f31509" d="m537.98 92.591c-5.966-31.997-7.592-67.247-7.05-73.212 0.542-5.9654 3.796-7.0501 6.507-7.0501 2.712 0 6.508 2.7116 6.508 7.05 0 8.1348 0.001 41.216-5.965 73.213z" transform="matrix(.42077 -.90717 .90717 .42077 65.94 643.62)"/><path id="path383" fill="#f31509" d="m537.98 92.591c-5.966-31.997-7.592-67.247-7.05-73.212 0.542-5.9654 3.796-7.0501 6.507-7.0501 2.712 0 6.508 2.7116 6.508 7.05 0 8.1348 0.001 41.216-5.965 73.213z" transform="matrix(.34326 -.93924 .93924 .34326 98.857 681.77)"/><path id="path384" fill="#f31509" d="m537.98 92.591c-5.966-31.997-7.592-67.247-7.05-73.212 0.542-5.9654 3.796-7.0501 6.507-7.0501 2.712 0 6.508 2.7116 6.508 7.05 0 8.1348 0.001 41.216-5.965 73.213z" transform="matrix(.25573 -.96675 .96675 .25573 138.38 720.17)"/><rect id="rect385" width="527.66" height="19.174" x="275.33" y="214.74"/></g></svg>