<svg xmlns="http://www.w3.org/2000/svg" id="svg1646" width="512" height="512" version="1.1"><metadata id="metadata3564"/><defs id="defs1648"><clipPath id="clipPath10940" clipPathUnits="userSpaceOnUse"><rect id="rect10942" width="512" height="512" x="0" y="0" fill-opacity=".67"/></clipPath></defs><g id="flag" fill-rule="evenodd" clip-path="url(#clipPath10940)"><rect id="rect555" width="592.45" height="595.94" x="-26.003" y="-24.954" fill="#fff" stroke-width="1pt"/><rect id="rect1649" width="312.09" height="275.22" x="255.34" y="-20.417" fill="#db0000" stroke-width="1pt"/><rect id="rect1650" width="309.82" height="316.17" x="-54.446" y="254.81" fill="#0000ab" stroke-width="1pt"/><path id="path205" fill="#0000ab" stroke-width=".113" d="m178.98 181.59-46.477-29.211-46.249 29.498 17.201-47.936-46.164-29.6 57.113-0.41269 17.715-47.79 18.094 47.68 57.113 0.0629-45.927 29.879 17.581 47.83z"/><path id="path1660" fill="#d80000" stroke-width=".113" d="m435.24 449.04-46.477-29.211-46.249 29.498 17.201-47.936-46.164-29.6 57.113-0.4127 17.715-47.79 18.094 47.68 57.113 0.0629-45.927 29.879 17.581 47.83z"/></g></svg>