<svg xmlns="http://www.w3.org/2000/svg" id="svg378" width="512" height="512" x="0" y="0" version="1"><metadata id="metadata3666"/><defs id="defs380"><clipPath id="clipPath6532" clipPathUnits="userSpaceOnUse"><rect id="rect6534" width="708.66" height="708.66" x="192.39" y="0" fill-opacity=".67"/></clipPath></defs><g id="flag" fill-rule="evenodd" clip-path="url(#clipPath6532)" transform="matrix(.72249 0 0 .72249 -139 .0000024116)"><rect id="rect149" width="1063" height="708.66" x="0" y="0" fill="#f50013" stroke-width="1pt"/><rect id="rect280" width="1063" height="354.33" x="0" y="0" fill="#00189a" stroke-width="1pt"/><path id="path279" fill="#feffff" stroke-width="1pt" d="m0 0 609.96 353.88-609.96 353.42v-707.3z"/><path id="path205" fill="#eca300" stroke-width=".113" d="m266.19 534.45-10.408-7.432-10.357 7.505 3.852-12.196-10.338-7.531 12.79-0.105 3.967-12.159 4.052 12.131 12.79 0.016-10.285 7.602 3.937 12.169z" transform="matrix(.87393 1.9702 -2.0604 .91397 897.48 -367.59)"/><path id="path425" fill="#eca300" stroke-width="1pt" d="m212.74 285.32 11.383-41.98-7.826-9.962-9.249 51.229 5.692 0.713zm-24.192 0-7.115-57.633 13.518-15.653 13.519 12.807-6.403 59.766-13.519 0.713zm-10.673 0.712-11.383-41.98 7.826-9.962 9.249 51.229-5.692 0.713z" transform="matrix(.70232 -.71186 .71186 .70232 -193.88 244.12)"/><path id="path426" fill="#eca300" stroke-width="1pt" d="m212.74 285.32 11.383-41.98-7.826-9.962-9.249 51.229 5.692 0.713zm-24.192 0-7.115-57.633 13.518-15.653 13.519 12.807-6.403 59.766-13.519 0.713zm-10.673 0.712-11.383-41.98 7.826-9.962 9.249 51.229-5.692 0.713z" transform="matrix(1 .00099444 -.00099444 1 .35201 -.19373)"/><path id="path427" fill="#eca300" stroke-width="1pt" d="m212.74 285.32 11.383-41.98-7.826-9.962-9.249 51.229 5.692 0.713zm-24.192 0-7.115-57.633 13.518-15.653 13.519 12.807-6.403 59.766-13.519 0.713zm-10.673 0.712-11.383-41.98 7.826-9.962 9.249 51.229-5.692 0.713z" transform="matrix(.69319 .72076 -.72076 .69319 314.87 -31.94)"/><path id="path428" fill="#eca300" stroke-width="1pt" d="m212.74 285.32 11.383-41.98-7.826-9.962-9.249 51.229 5.692 0.713zm-24.192 0-7.115-57.633 13.518-15.653 13.519 12.807-6.403 59.766-13.519 0.713zm-10.673 0.712-11.383-41.98 7.826-9.962 9.249 51.229-5.692 0.713z" transform="matrix(-.0015196 1 -1 -.0015196 549.12 159.46)"/><path id="path429" fill="#eca300" stroke-width="1pt" d="m212.74 285.32 11.383-41.98-7.826-9.962-9.249 51.229 5.692 0.713zm-24.192 0-7.115-57.633 13.518-15.653 13.519 12.807-6.403 59.766-13.519 0.713zm-10.673 0.712-11.383-41.98 7.826-9.962 9.249 51.229-5.692 0.713z" transform="matrix(-.69917 .71495 -.71495 -.69917 584.26 461.92)"/><path id="path430" fill="#eca300" stroke-width="1pt" d="m212.74 285.32 11.383-41.98-7.826-9.962-9.249 51.229 5.692 0.713zm-24.192 0-7.115-57.633 13.518-15.653 13.519 12.807-6.403 59.766-13.519 0.713zm-10.673 0.712-11.383-41.98 7.826-9.962 9.249 51.229-5.692 0.713z" transform="matrix(-.99998 .0058818 -.0058818 -.99998 391.98 706.6)"/><path id="path431" fill="#eca300" stroke-width="1pt" d="m212.74 285.32 11.383-41.98-7.826-9.962-9.249 51.229 5.692 0.713zm-24.192 0-7.115-57.633 13.518-15.653 13.519 12.807-6.403 59.766-13.519 0.713zm-10.673 0.712-11.383-41.98 7.826-9.962 9.249 51.229-5.692 0.713z" transform="matrix(-.70468 -.70952 .70952 -.70468 81.249 741.57)"/><path id="path432" fill="#eca300" stroke-width="1pt" d="m212.74 285.32 11.383-41.98-7.826-9.962-9.249 51.229 5.692 0.713zm-24.192 0-7.115-57.633 13.518-15.653 13.519 12.807-6.403 59.766-13.519 0.713zm-10.673 0.712-11.383-41.98 7.826-9.962 9.249 51.229-5.692 0.713z" transform="matrix(-.0055769 -.99998 .99998 -.0055769 -157.83 550.8)"/><path id="path433" fill="#eca300" stroke-width=".113" d="m266.19 534.45-10.408-7.432-10.357 7.505 3.852-12.196-10.338-7.531 12.79-0.105 3.967-12.159 4.052 12.131 12.79 0.016-10.285 7.602 3.937 12.169z" transform="matrix(2.0518 .65988 -.69011 2.1458 327.17 -931.59)"/><path id="path434" fill="#eca300" stroke-width=".113" d="m266.19 534.45-10.408-7.432-10.357 7.505 3.852-12.196-10.338-7.531 12.79-0.105 3.967-12.159 4.052 12.131 12.79 0.016-10.285 7.602 3.937 12.169z" transform="matrix(1.579 1.467 -1.5342 1.6513 444.17 -1137)"/><ellipse id="path418" cx="190.68" cy="353.88" fill="#eca300" stroke-width="1pt" d="m 263.71223,353.87601 c 0,40.33258 -32.69602,73.02859 -73.02861,73.02859 -40.33258,0 -73.0286,-32.69601 -73.0286,-73.02859 0,-40.33258 32.69602,-73.0286 73.0286,-73.0286 40.33259,0 73.02861,32.69602 73.02861,73.0286 z" rx="73.029" ry="73.029" transform="translate(4.269 -.000023970)"/></g></svg>