<svg xmlns="http://www.w3.org/2000/svg" id="svg378" width="512" height="512" x="0" y="0" version="1.0"><metadata id="metadata3702"/><defs id="defs380"><clipPath id="clipPath6343" clipPathUnits="userSpaceOnUse"><rect id="rect6345" width="708.66" height="708.66" x="51.624" y="0" fill-opacity=".67"/></clipPath></defs><g id="flag" fill-rule="evenodd" clip-path="url(#clipPath6343)" transform="matrix(.72249 0 0 .72249 -37.298 .0000024116)"><rect id="rect149" width="1063" height="708.66" x="0" y="0" fill="#ed0000" stroke-width="1pt"/><rect id="rect280" width="1063" height="141.73" x="0" y="141.73" fill="#fff" stroke-width="1pt"/><rect id="rect281" width="1063" height="141.73" x="0" y="425.2" fill="#fff" stroke-width="1pt"/><path id="path279" fill="#0050f0" stroke-width="1pt" d="m0 0 609.96 353.88-609.96 353.42v-707.3z"/><path id="path205" fill="#fff" stroke-width=".113" d="m266.19 534.45-10.408-7.432-10.357 7.505 3.852-12.196-10.338-7.531 12.79-0.105 3.967-12.159 4.052 12.131 12.79 0.016-10.285 7.602 3.937 12.169z" transform="matrix(6.3097 0 0 6.5987 -1411.4 -3076.2)"/></g></svg>