<svg xmlns="http://www.w3.org/2000/svg" id="svg548" width="512" height="512" version="1.1"><metadata id="metadata3032"/><defs id="defs550"><clipPath id="clipPath5251" clipPathUnits="userSpaceOnUse"><rect id="rect5253" width="496.06" height="496.06" x="0" y="0" fill-opacity=".67"/></clipPath></defs><g id="flag" fill-rule="evenodd" stroke-width="1pt" clip-path="url(#clipPath5251)" transform="matrix(1.0321 0 0 1.0321 0 .000057287)"><path id="path1338" fill="#0000d6" d="m0.000063477 491.39 956.69-491.39h-956.69v491.39z"/><path id="path552" fill="#006000" d="m992.13-0.000053406-965.8 496.06h965.8v-496.06z"/><path id="path558" fill="#fc0" d="m119.06 0h-6.38l-112.68 56.43v3.0978h6.378l112.68-56.32v-3.208z" transform="scale(8.3333)"/><polygon id="polygon1350" fill="#fff" points="476.5 433.15 498.45 365.81 441.12 324.21 511.95 324.28 533.78 256.9 555.61 324.28 626.44 324.23 569.1 365.81 591.04 433.16 591.04 433.16 533.77 391.48" transform="matrix(.52623 0 0 .49524 -211.72 -118.39)"/><polygon id="polygon1351" fill="#fff" points="476.5 433.15 498.45 365.81 441.12 324.21 511.95 324.28 533.78 256.9 555.61 324.28 626.44 324.23 569.1 365.81 591.04 433.16 591.04 433.16 533.77 391.48" transform="matrix(.52623 0 0 .49524 -26.526 -118.39)"/><polygon id="polygon1352" fill="#fff" points="476.5 433.15 498.45 365.81 441.12 324.21 511.95 324.28 533.78 256.9 555.61 324.28 626.44 324.23 569.1 365.81 591.04 433.16 591.04 433.16 533.77 391.48" transform="matrix(.52623 0 0 .49524 -26.526 21.596)"/><polygon id="polygon1353" fill="#fff" points="476.5 433.15 498.45 365.81 441.12 324.21 511.95 324.28 533.78 256.9 555.61 324.28 626.44 324.23 569.1 365.81 591.04 433.16 591.04 433.16 533.77 391.48" transform="matrix(.52623 0 0 .49524 -118.58 -47.579)"/><polygon id="polygon1354" fill="#fff" points="476.5 433.15 498.45 365.81 441.12 324.21 511.95 324.28 533.78 256.9 555.61 324.28 626.44 324.23 569.1 365.81 591.04 433.16 591.04 433.16 533.77 391.48" transform="matrix(.52623 0 0 .49524 -211.72 21.596)"/></g></svg>