<svg xmlns="http://www.w3.org/2000/svg" id="svg548" width="512" height="512" x="0" y="0" version="1"><metadata id="metadata3043"/><defs id="defs550"><clipPath id="clipPath5206" clipPathUnits="userSpaceOnUse"><rect id="rect5208" width="512" height="496.06" x="0" y="0" fill-opacity=".67"/></clipPath></defs><g id="flag" fill-rule="evenodd" stroke-width="1pt" clip-path="url(#clipPath5206)" transform="matrix(1 0 0 1.0321 0 .00014930)"><rect id="rect551" width="992.13" height="496.06" x="0" y="0" fill="red"/><path id="path552" fill="#090" d="m0 531.5 1063-177.16v177.16h-1063z" transform="matrix(.93333 0 0 .93333 0 -.000015259)"/><path id="path553" fill="#fff" d="m0 531.5 1063-354.33v177.17l-1063 177.16z" transform="matrix(.93333 0 0 .93333 0 -.000015259)"/><path id="path554" fill="#009" d="m0 531.5v-531.5h354.33l-354.33 531.5z" transform="matrix(.93333 0 0 .93333 0 -.000015259)"/><path id="path555" fill="#ff0" d="m0 531.5 354.33-531.5h354.33l-708.66 531.5z" transform="matrix(.93333 0 0 .93333 0 -.000015259)"/></g></svg>