<svg xmlns="http://www.w3.org/2000/svg" id="svg378" width="512" height="512" x="0" y="0" version="1"><metadata id="metadata3619"/><defs id="defs380"><clipPath id="clipPath3830" clipPathUnits="userSpaceOnUse"><rect id="rect3832" width="512" height="512" x="0" y="0" fill-opacity=".67"/></clipPath></defs><g id="flag" fill-rule="evenodd" clip-path="url(#clipPath3830)"><rect id="rect171" width="512" height="512" x="0" y="0" fill="#fff" rx="0" ry="0"/><rect id="rect256" width="512" height="169.92" x="0" y="342.08" fill="#fff" rx="0" ry="0"/><rect id="rect255" width="512" height="169.92" x="0" y="0" fill="#fff"/><path id="path205" fill="#fff" d="m151.36 299.73-30.743-22.258-30.592 22.476 11.378-36.525-30.536-22.554 37.779-0.31446 11.718-36.414 11.969 36.33 37.779 0.0479-30.38 22.767 11.629 36.444z"/><path id="path583" fill="#fff" d="m436.84 299.73-30.743-22.258-30.592 22.476 11.378-36.525-30.536-22.554 37.779-0.31446 11.718-36.414 11.969 36.33 37.779 0.0479-30.38 22.767 11.629 36.444z"/><rect id="rect7524" width="512" height="169.92" x="0" y="342.08" stroke-width="1pt" rx="0" ry="0"/><rect id="rect7526" width="512" height="169.92" x="0" y="0" fill="red" stroke-width="1pt"/><path id="path7528" fill="#090" stroke-width=".113" d="m151.36 299.73-30.743-22.258-30.592 22.476 11.378-36.525-30.536-22.554 37.779-0.31446 11.718-36.414 11.969 36.33 37.779 0.0479-30.38 22.767 11.629 36.444z"/><path id="path7530" fill="#090" stroke-width=".113" d="m436.84 299.73-30.743-22.258-30.592 22.476 11.378-36.525-30.536-22.554 37.779-0.31446 11.718-36.414 11.969 36.33 37.779 0.0479-30.38 22.767 11.629 36.444z"/></g></svg>