<svg xmlns="http://www.w3.org/2000/svg" id="svg548" width="512" height="512" version="1.1"><metadata id="metadata3717"/><defs id="defs550"><clipPath id="clipPath7166" clipPathUnits="userSpaceOnUse"><rect id="rect7168" width="496.3" height="496.3" x="0" y="-.241" fill-opacity=".67"/></clipPath></defs><g id="flag" fill-rule="evenodd" clip-path="url(#clipPath7166)" transform="matrix(1.0316 0 0 1.0316 0 .24825)"><rect id="rect558" width="744.09" height="496.3" x="0" y="-.241" fill="#ffe300" stroke-width="1pt"/><rect id="rect555" width="744.09" height="99.66" x="0" y="201.52" fill="#118600" stroke-width="1pt"/><rect id="rect570" width="744.09" height="99.66" x="0" y="0" fill="#118600" stroke-width="1pt"/><rect id="rect554" width="297.12" height="301.18" x="0" y="0" fill="#d80000" stroke-width="1pt"/><path id="path567" fill="#fff" d="m130.3 124.25c0-0.83 18.259-51.456 18.259-51.456l16.599 50.626s55.606 1.66 55.606 0.83-43.987 33.198-43.987 33.198 20.748 58.096 19.919 56.436c-0.83-1.66-48.137-34.858-48.137-34.858s-48.136 33.198-47.306 33.198 18.258-54.776 18.258-54.776l-43.156-32.37 53.946-0.83z"/><rect id="rect569" width="744.09" height="99.66" x="0" y="396.4" fill="#118600" stroke-width="1pt"/></g></svg>