<svg xmlns="http://www.w3.org/2000/svg" id="svg548" width="512" height="512" version="1.1"><metadata id="metadata3781"/><defs id="defs550"><clipPath id="clipPath6079" clipPathUnits="userSpaceOnUse"><rect id="rect6081" width="496.06" height="496.06" x="0" y="0" fill-opacity=".67"/></clipPath></defs><g id="flag" fill-rule="evenodd" clip-path="url(#clipPath6079)" transform="matrix(1.0321 0 0 1.0321 0 .000033605)"><rect id="rect672" width="999.07" height="496.06" x="0" y="0" fill="#cb000f" stroke-width="1pt"/><path id="path671" fill="#f8c00c" d="m0 0c3.133 0 496.06 248.73 496.06 248.73l-496.06 247.33v-496.06z"/><path id="path670" d="m0 0c2.0843 0 330.01 248.73 330.01 248.73l-330.01 247.33v-496.06z"/><path id="path663" fill="#fff" d="m181.87 288.88-58.92-13.058-30.105 51.194-4.71-57.819-58.862-12.956 53.133-24.045-3.1891-57.537 38.983 42.039 53.618-24.447-27.93 52.221 37.983 44.408z"/></g></svg>