<svg xmlns="http://www.w3.org/2000/svg" xmlns:xlink="http://www.w3.org/1999/xlink" id="svg832" width="512" height="512" x="0" y="0" version="1.0"><metadata id="metadata3192"/><defs id="defs834"><linearGradient id="linearGradient583"><stop id="stop584" offset="0" stop-color="#faff00"/><stop id="stop585" offset="1" stop-color="#f5c402"/></linearGradient><linearGradient id="linearGradient6024" x1="123.79" x2="123.79" y1="360.52" y2="459.27" gradientTransform="scale(.72665 1.3762)" gradientUnits="userSpaceOnUse" xlink:href="#linearGradient583"/><clipPath id="clipPath6042" clipPathUnits="userSpaceOnUse"><rect id="rect6044" width="496.74" height="496.74" x="-.143" y="-.339" fill-opacity=".67"/></clipPath></defs><g id="flag" clip-path="url(#clipPath6042)" transform="matrix(1.0307 0 0 1.0307 .14744 .34958)"><g id="g594" fill-rule="evenodd" transform="matrix(.46905 0 0 .46905 112.73 -59.885)"><rect id="rect741" width="1587" height="1059" x="-240.65" y="126.95" fill="#fff" stroke-width="1pt"/><path id="path593" fill="url(#linearGradient6024)" fill-opacity=".561" stroke="#cbaa19" stroke-width="3.125" d="m101.66 488.82c9.641 18.113 21.855 33.027 30.418 58.686 1.846 34.313-2.07 40.849 4.635 57.059 2.696 5.929 6.544 8.378 7.285 22.123-1.146 19.675-9.645 20.899-18 20.359-1.5-6.043-0.002-9.946-10.648-20.357-5.765-6.161-12.613-16.348-16.234-29.493-1.1265-12.074-1.7577-27.767-7.7864-40.892-8.6741-14.17-9.9698-21.069-18.211-28.491-8.486-9.873-8.0016-13.336-12.65-24.094 11.39-18.449 22.187-20.33 41.192-14.9z" transform="matrix(-.70971 .70449 -.70449 -.70971 390.96 688.93)"/><path id="path591" fill="url(#linearGradient6024)" fill-opacity=".561" stroke="#cbaa19" stroke-width="3.125" d="m101.66 488.82c9.641 18.113 21.855 33.027 30.418 58.686 1.846 34.313-2.07 40.849 4.635 57.059 2.696 5.929 6.544 8.378 7.285 22.123-1.146 19.675-9.645 20.899-18 20.359-1.5-6.043-0.002-9.946-10.648-20.357-5.765-6.161-12.613-16.348-16.234-29.493-1.1265-12.074-1.7577-27.767-7.7864-40.892-8.6741-14.17-9.9698-21.069-18.211-28.491-8.486-9.873-8.0016-13.336-12.65-24.094 11.39-18.449 22.187-20.33 41.192-14.9z" transform="matrix(-.99992 -.012937 .012937 -.99992 101.58 850.68)"/><path id="path590" fill="url(#linearGradient6024)" fill-opacity=".561" stroke="#cbaa19" stroke-width="3.125" d="m101.66 488.82c9.641 18.113 21.855 33.027 30.418 58.686 1.846 34.313-2.07 40.849 4.635 57.059 2.696 5.929 6.544 8.378 7.285 22.123-1.146 19.675-9.645 20.899-18 20.359-1.5-6.043-0.002-9.946-10.648-20.357-5.765-6.161-12.613-16.348-16.234-29.493-1.1265-12.074-1.7577-27.767-7.7864-40.892-8.6741-14.17-9.9698-21.069-18.211-28.491-8.486-9.873-8.0016-13.336-12.65-24.094 11.39-18.449 22.187-20.33 41.192-14.9z" transform="matrix(-.69945 -.71468 .71468 -.69945 -212.76 760.55)"/><path id="path589" fill="url(#linearGradient6024)" fill-opacity=".561" stroke="#cbaa19" stroke-width="3.125" d="m101.66 488.82c9.641 18.113 21.855 33.027 30.418 58.686 1.846 34.313-2.07 40.849 4.635 57.059 2.696 5.929 6.544 8.378 7.285 22.123-1.146 19.675-9.645 20.899-18 20.359-1.5-6.043-0.002-9.946-10.648-20.357-5.765-6.161-12.613-16.348-16.234-29.493-1.1265-12.074-1.7577-27.767-7.7864-40.892-8.6741-14.17-9.9698-21.069-18.211-28.491-8.486-9.873-8.0016-13.336-12.65-24.094 11.39-18.449 22.187-20.33 41.192-14.9z" transform="matrix(.0071712 -.99997 .99997 .0071712 -371.84 475.5)"/><path id="path587" fill="url(#linearGradient6024)" fill-opacity=".561" stroke="#cbaa19" stroke-width="3.125" d="m101.66 488.82c9.641 18.113 21.855 33.027 30.418 58.686 1.846 34.313-2.07 40.849 4.635 57.059 2.696 5.929 6.544 8.378 7.285 22.123-1.146 19.675-9.645 20.899-18 20.359-1.5-6.043-0.002-9.946-10.648-20.357-5.765-6.161-12.613-16.348-16.234-29.493-1.1265-12.074-1.7577-27.767-7.7864-40.892-8.6741-14.17-9.9698-21.069-18.211-28.491-8.486-9.873-8.0016-13.336-12.65-24.094 11.39-18.449 22.187-20.33 41.192-14.9z" transform="matrix(.71126 -.70293 .70293 .71126 -283.29 160.35)"/><path id="path595" fill="url(#linearGradient6024)" fill-opacity=".561" stroke="#cbaa19" stroke-width="3.125" d="m101.66 488.82c9.641 18.113 21.855 33.027 30.418 58.686 1.846 34.313-2.07 40.849 4.635 57.059 2.696 5.929 6.544 8.378 7.285 22.123-1.146 19.675-9.645 20.899-18 20.359-1.5-6.043-0.002-9.946-10.648-20.357-5.765-6.161-12.613-16.348-16.234-29.493-1.1265-12.074-1.7577-27.767-7.7864-40.892-8.6741-14.17-9.9698-21.069-18.211-28.491-8.486-9.873-8.0016-13.336-12.65-24.094 11.39-18.449 22.187-20.33 41.192-14.9z" transform="matrix(.70345 .71074 -.71074 .70345 317.95 87.982)"/><path id="path594" fill="url(#linearGradient6024)" fill-opacity=".561" stroke="#cbaa19" stroke-width="3.125" d="m101.66 488.82c9.641 18.113 21.855 33.027 30.418 58.686 1.846 34.313-2.07 40.849 4.635 57.059 2.696 5.929 6.544 8.378 7.285 22.123-1.146 19.675-9.645 20.899-18 20.359-1.5-6.043-0.002-9.946-10.648-20.357-5.765-6.161-12.613-16.348-16.234-29.493-1.1265-12.074-1.7577-27.767-7.7864-40.892-8.6741-14.17-9.9698-21.069-18.211-28.491-8.486-9.873-8.0016-13.336-12.65-24.094 11.39-18.449 22.187-20.33 41.192-14.9z" transform="matrix(-.0043019 .99999 -.99999 -.0043019 478.78 373.3)"/><rect id="rect845" width="1001.2" height="120.52" x="345.13" y="247.98" fill="#002993" stroke-width="1pt"/><rect id="rect846" width="1001.2" height="120.52" x="345.13" y="482.62" fill="#002993" stroke-width="1pt"/><path id="path613" fill="url(#linearGradient6024)" fill-opacity=".561" stroke="#cbaa19" stroke-width="3.125" d="m101.66 488.82c9.641 18.113 21.855 33.027 30.418 58.686 1.846 34.313-2.07 40.849 4.635 57.059 2.696 5.929 6.544 8.378 7.285 22.123-1.146 19.675-9.645 20.899-18 20.359-1.5-6.043-0.002-9.946-10.648-20.357-5.765-6.161-12.613-16.348-16.234-29.493-1.1265-12.074-1.7577-27.767-7.7864-40.892-8.6741-14.17-9.9698-21.069-18.211-28.491-8.486-9.873-8.0016-13.336-12.65-24.094 11.39-18.449 22.187-20.33 41.192-14.9z"/><rect id="rect847" width="1587" height="120.52" x="-240.65" y="714.54" fill="#002993" stroke-width="1pt"/><rect id="rect848" width="1587" height="120.52" x="-240.65" y="947.82" fill="#002993" stroke-width="1pt"/><path id="path585" fill="#faff00" stroke="#cbaa19" stroke-linecap="round" stroke-width="3.125" d="m82.66 496.87-29.119 159.36v-159.36h29.119z"/><path id="path588" fill="#f5c402" stroke="#cbaa19" stroke-width="3.125" d="m82.66 496.87-29.119 159.36v-159.36h29.119z" transform="matrix(-1 0 0 1 107.08 -.00048828)"/><path id="path596" fill="#faff00" stroke="#cbaa19" stroke-linecap="round" stroke-width="3.125" d="m82.66 496.87-29.119 159.36v-159.36h29.119z" transform="matrix(.70581 -.70840 .70840 .70581 -285.33 162.96)"/><path id="path597" fill="#f5c402" stroke="#cbaa19" stroke-width="3.125" d="m82.66 496.87-29.119 159.36v-159.36h29.119z" transform="matrix(-.70581 .70840 .70840 .70581 -209.75 87.104)"/><path id="path598" fill="#faff00" stroke="#cbaa19" stroke-linecap="round" stroke-width="3.125" d="m82.66 496.87-29.119 159.36v-159.36h29.119z" transform="matrix(-.0019282 -1 1 -.0019282 -371.37 479.37)"/><path id="path599" fill="#f5c402" stroke="#cbaa19" stroke-width="3.125" d="m82.66 496.87-29.119 159.36v-159.36h29.119z" transform="matrix(.0019282 1 1 -.0019282 -371.57 372.29)"/><path id="path600" fill="#faff00" stroke="#cbaa19" stroke-linecap="round" stroke-width="3.125" d="m82.66 496.87-29.119 159.36v-159.36h29.119z" transform="matrix(-.70544 -.70877 .70877 -.70544 -209.93 762.78)"/><path id="path601" fill="#f5c402" stroke="#cbaa19" stroke-width="3.125" d="m82.66 496.87-29.119 159.36v-159.36h29.119z" transform="matrix(.70544 .70877 .70877 -.70544 -285.47 686.88)"/><path id="path602" fill="#faff00" stroke="#cbaa19" stroke-linecap="round" stroke-width="3.125" d="m82.66 496.87-29.119 159.36v-159.36h29.119z" transform="matrix(-1 .0019556 -.0019556 -1 107.91 849.92)"/><path id="path603" fill="#f5c402" stroke="#cbaa19" stroke-width="3.125" d="m82.66 496.87-29.119 159.36v-159.36h29.119z" transform="matrix(1 -.0019556 -.0019556 -1 .83117 850.13)"/><path id="path604" fill="#faff00" stroke="#cbaa19" stroke-linecap="round" stroke-width="3.125" d="m82.66 496.87-29.119 159.36v-159.36h29.119z" transform="matrix(-.70577 .70844 -.70844 -.70577 392.42 687.04)"/><path id="path605" fill="#f5c402" stroke="#cbaa19" stroke-width="3.125" d="m82.66 496.87-29.119 159.36v-159.36h29.119z" transform="matrix(.70577 -.70844 -.70844 -.70577 316.85 762.9)"/><path id="path606" fill="#faff00" stroke="#cbaa19" stroke-linecap="round" stroke-width="3.125" d="m82.66 496.87-29.119 159.36v-159.36h29.119z" transform="matrix(.011057 .99994 -.99994 .011057 477.93 366.77)"/><path id="path607" fill="#f5c402" stroke="#cbaa19" stroke-width="3.125" d="m82.66 496.87-29.119 159.36v-159.36h29.119z" transform="matrix(-.011057 -.99994 -.99994 .011057 479.12 473.85)"/><path id="path608" fill="#faff00" stroke="#cbaa19" stroke-linecap="round" stroke-width="3.125" d="m82.66 496.87-29.119 159.36v-159.36h29.119z" transform="matrix(.71235 .70182 -.70182 .71235 313.68 84.677)"/><path id="path609" fill="#f5c402" stroke="#cbaa19" stroke-width="3.125" d="m82.66 496.87-29.119 159.36v-159.36h29.119z" transform="matrix(-.71235 -.70182 -.70182 .71235 389.96 159.83)"/><ellipse id="path566" cx="52.585" cy="422.29" fill="#faff00" stroke="#cbaa19" stroke-width="3.125" d="m 134.80975,422.29388 c 0,44.88325 -36.813109,81.26831 -82.224385,81.26831 -45.4112753,0 -82.224388,-36.38506 -82.224388,-81.26831 0,-44.88324 36.8131127,-81.26831 82.224388,-81.26831 45.411276,0 82.224385,36.38507 82.224385,81.26831 z" rx="82.224" ry="81.268" transform="translate(.95610 2.8683)"/></g></g></svg>