<svg xmlns="http://www.w3.org/2000/svg" xmlns:xlink="http://www.w3.org/1999/xlink" width="512" height="512" viewBox="0 0 102.4 102.4"><defs><g id="f" transform="translate(0 -36)"><g id="e"><g id="d"><path id="c" fill="#fff" d="M0-5l-1.545 4.755 2.853.927z"/><use width="180" height="120" transform="scale(-1 1)" xlink:href="#c"/></g><use width="180" height="120" transform="rotate(72)" xlink:href="#d"/></g><use width="180" height="120" transform="rotate(-72)" xlink:href="#d"/><use width="180" height="120" transform="matrix(-.809 .588 -.588 -.809 0 0)" xlink:href="#e"/></g></defs><path fill="#cf142b" d="M0 0h102.4v102.4h-102.4z"/><path fill="#00247d" d="M0 0h102.4v68.267h-102.4z"/><path fill="#fc0" d="M0 0h102.4v34.133h-102.4z"/><g transform="matrix(.853 0 0 .853 51.267 71.68)"><g id="b"><g id="a"><use width="180" height="120" transform="rotate(10)" xlink:href="#f"/><use width="180" height="120" transform="rotate(30)" xlink:href="#f"/></g><use width="180" height="120" transform="rotate(40)" xlink:href="#a"/></g><use width="180" height="120" transform="rotate(-80)" xlink:href="#b"/></g></svg>