<svg xmlns="http://www.w3.org/2000/svg" id="svg548" width="512" height="512" x="0" y="0" version="1"><metadata id="metadata3794"/><defs id="defs550"><clipPath id="clipPath4085" clipPathUnits="userSpaceOnUse"><rect id="rect4087" width="499.61" height="499.61" x="70.133" y="0" fill-opacity=".67"/></clipPath></defs><g id="flag"><g id="g4048" clip-path="url(#clipPath4085)" transform="matrix(1.0248 0 0 1.0248 -71.873 .000013125)"><g id="g603" fill-rule="evenodd" stroke-width="1pt" transform="matrix(1.9983 0 0 1.9988 -74.837 -1553.7)"><path id="path581" d="m37.451 976.39v-148.12l110.28 74.022-110.28 74.103z"/><path id="path597" fill="#00c" d="m112.7 1027.3 123.81-83.306h175.98v83.306h-299.79z"/><path id="path598" fill="red" d="m104.74 777.32 307.74 0.006v83.32h-175.98s-130.11-84.15-131.76-83.326z"/><path id="path599" fill="#fc0" d="m37.451 808.57v19.688l110.28 74.022-110.28 74.103v19.687l138.9-93.79-138.9-93.71z"/><path id="path600" fill="#093" d="m37.451 808.57v-31.25h46.338l147.14 99.531h181.55v50.899h-181.55l-147.14 99.517h-46.338v-31.197l138.9-93.79-138.9-93.71z"/><path id="path601" fill="#fff" d="m83.789 777.32h28.906l123.81 83.32h175.98v16.211h-181.55l-147.14-99.531z"/><path id="path602" fill="#fff" d="m83.789 1027.3h28.906l123.81-83.306h175.98v-16.211h-181.55l-147.14 99.517z"/></g></g></g></svg>