<svg xmlns="http://www.w3.org/2000/svg" id="svg559" width="512" height="512" version="1.1"><metadata id="metadata3856"/><defs id="defs561"><clipPath id="clipPath3967" clipPathUnits="userSpaceOnUse"><rect id="rect3969" width="496.06" height="496.06" x="0" y="0" fill-opacity=".67"/></clipPath></defs><g id="flag" stroke-width="1pt" clip-path="url(#clipPath3967)" transform="matrix(1.0321 0 0 1.0321 0 .00033124)"><rect id="rect608" width="992.13" height="70.866" x="0" y="425.2" fill="#319208" fill-rule="evenodd"/><rect id="rect612" width="992.13" height="70.866" x="0" y="283.46" fill="#de2010" fill-rule="evenodd"/><rect id="rect611" width="992.13" height="70.866" x="0" y="354.33" fill="#ffd200" fill-rule="evenodd"/><rect id="rect614" width="992.13" height="70.866" x="0" y="141.73" fill="#de2010" fill-rule="evenodd"/><rect id="rect615" width="992.13" height="70.866" x="0" y="70.866" fill="#ffd200" fill-rule="evenodd"/><rect id="rect616" width="992.13" height="70.866" x="0" y="0" fill="#319208" fill-rule="evenodd"/><path id="path623" fill-rule="evenodd" d="m27.992-0.00030518v496.06l333.07-248.03-333.07-248.03z"/><rect id="rect621" width="28.346" height="496.06" x="0" y="0" fill-rule="evenodd"/><path id="path620" fill-rule="evenodd" d="m0-0.00011444v496.06l361.42-248.03-361.42-248.03z"/><rect id="rect613" width="992.13" height="70.866" x="0" y="212.6" fill-rule="evenodd"/><path id="path617" fill="#fff" fill-rule="evenodd" d="m0-0.00017548v496.06l333.07-248.03-333.07-248.03z"/><g id="g584" transform="translate(-494.23 -14.644)"><polygon id="polygon583" fill="#d62419" fill-rule="evenodd" d="m 613.9433,119.5371 31.82993,83.38772 91.91782,-5.79005 -69.47045,56.04029 33.91084,85.62981 -74.76503,-48.75292 -70.95977,58.71219 23.26312,-86.17125 -77.76639,-49.34369 89.14243,-4.50384 z" points="613.94 119.54 645.77 202.92 737.69 197.14 668.22 253.18 702.13 338.8 627.37 290.05 556.41 348.76 579.67 262.59 501.9 213.25 591.05 208.74" transform="matrix(1.0221 .073279 -.073279 1.0221 3.3492 -41.431)"/><path id="path564" fill="#f7df00" fill-rule="evenodd" stroke="#000" d="m542.73 175.7c1.606-2.892 1.927-4.499 10.282-8.034 10.925-31.811 38.881-19.279 54.305 24.743 14.138 6.105 98.648 69.085 97.363 72.62-0.643 3.213-11.247 0.643-11.247 0.643s-16.709 71.335-17.03 71.335c-31.17-4.177-79.69-4.82-112.79-4.177 0.321-5.463-8.997-41.131-8.997-41.131s-8.034-2.57 5.462-29.883c14.46-34.382 17.352-90.294-17.351-86.116z"/><path id="path565" fill="none" stroke="#000" d="m571.32 162.84c0 1.9521-1.5825 3.5346-3.5346 3.5346s-3.5346-1.5825-3.5346-3.5346 1.5825-3.5346 3.5346-3.5346 3.5346 1.5825 3.5346 3.5346z"/><path id="path566" fill="none" stroke="#000" d="m606.35 192.41s-27.635 15.745-35.668 15.423"/><path id="path567" fill="none" stroke="#000" d="m693.43 265.67c-1.928-1.607-102.5-6.427-98.327-40.488"/><path id="path568" fill="none" stroke="#000" d="m611.17 266.31s10.925 6.427 20.243-10.282"/><path id="path569" fill="none" stroke="#000" d="m623.38 265.99s7.712 7.069 18.959-8.354"/><path id="path570" fill="none" stroke="#000" d="m554.94 291.7s7.069 0.964 8.355-3.213"/><path id="path571" fill="none" stroke="#000" d="m588.35 333.15c0-0.321-7.069-45.629-7.069-45.629 34.918 3.106 71.121 3.321 104.75 9.319"/><path id="path572" fill="none" stroke="#000" d="m584.82 288.16 9.639 11.246 9.962-9.64 8.354 8.998"/><path id="path573" fill="none" stroke="#000" d="m615.35 299.09 8.354-7.391 8.998 8.676"/><path id="path574" fill="none" stroke="#000" d="m634.3 300.37 9.319-8.354 7.069 8.355"/><path id="path575" fill="none" stroke="#000" d="m654.55 300.7 8.355-5.784 7.39 7.069"/><path id="path576" fill="none" stroke="#000" d="m676.08 301.66 6.105-5.784"/><path id="path577" fill="none" stroke="#000" d="m583.21 298.44 10.283 11.89 10.282-9.319 8.997 9.64 10.283-8.997 8.676 10.282 10.604-8.997s8.033 9.961 8.997 9.961 10.604-8.354 10.604-8.354l9.319 10.282 12.852-10.282"/><path id="path578" fill="none" stroke="#000" d="m584.82 310.01s82.903 3.214 96.398 6.427"/><path id="path579" fill="none" stroke="#000" d="m598.64 272.42s78.725 4.177 91.257 8.997"/><path id="path580" fill="none" stroke="#000" d="m582.57 239.64c0.643 4.82-5.141 21.529-11.246 27.313-8.355 6.748-7.391 20.886-7.391 20.886 0.964 5.784 13.496 5.141 15.103 2.25 1.285-13.175 15.423-16.067 15.423-16.067s19.602-5.462 27.956-21.85"/><path id="path581" fill="none" stroke="#000" d="m622.09 281.41c0 2.307-1.8702 4.1773-4.1773 4.1773s-4.1773-1.8702-4.1773-4.1773c0-2.307 1.8702-4.1773 4.1773-4.1773s4.1773 1.8702 4.1773 4.1773z"/><path id="path582" fill="none" stroke="#000" d="m640.73 283.02c0 2.307-1.8702 4.1773-4.1772 4.1773s-4.1772-1.8702-4.1772-4.1773c0-2.307 1.8702-4.1773 4.1772-4.1773s4.1772 1.8702 4.1772 4.1773z"/></g></g></svg>