<svg xmlns="http://www.w3.org/2000/svg" id="svg548" width="640" height="480" x="0" y="0" version="1"><metadata id="metadata4629"/><defs id="defs550"><clipPath id="clipPath3191" clipPathUnits="userSpaceOnUse"><rect id="rect3193" width="682.67" height="512" x="-117.82" y="0" fill-opacity=".67"/></clipPath></defs><g id="flag" clip-path="url(#clipPath3191)" transform="matrix(.93750 0 0 .93750 110.46 -.000015169)"><g id="g558" fill-rule="evenodd" stroke-width="1pt" transform="matrix(24.381 0 0 24.381 -117.82 .00001745)"><rect id="rect551" width="42" height="7" x="0" y="0"/><rect id="rect552" width="42" height="7" x="0" y="7" fill="#fff"/><rect id="rect553" width="42" height="7" x="0" y="14" fill="#090"/><path id="path554" fill="red" d="m0 21 21-10.5-21-10.5v21z"/><polygon id="polygon557" fill="#fff" points="5.838 11.852 6.071 10.834 5.027 10.834 5.967 10.381 5.317 9.565 6.257 10.018 6.489 9 6.489 9 6.722 10.018 7.662 9.565 7.011 10.381 7.952 10.834 6.908 10.834 7.14 11.852 6.489 11.035"/></g></g></svg>