<svg xmlns="http://www.w3.org/2000/svg" id="svg660" width="640" height="480" version="1.1"><metadata id="metadata4850"/><defs id="defs662"><clipPath id="clipPath4687" clipPathUnits="userSpaceOnUse"><rect id="rect4689" width="682.67" height="512" x="0" y="0" fill-opacity=".67"/></clipPath></defs><g id="flag" fill-rule="evenodd" clip-path="url(#clipPath4687)" transform="scale(.9375)"><rect id="rect665" width="768.77" height="128" x="0" y="0" fill="#ff0" stroke-width="1pt"/><rect id="rect668" width="768.77" height="128" x="0" y="128" fill="#fff" stroke-width="1pt"/><rect id="rect667" width="768.77" height="128" x="0" y="256" fill="#be0027" stroke-width="1pt"/><rect id="rect666" width="768.77" height="128" x="0" y="384" fill="#3b5aa3" stroke-width="1pt"/><path id="path664" fill="#239e46" d="m0 0.000019406v512l381.86-255.28-381.86-256.72z"/><path id="path673" fill="#fff" d="m157.21 141.43c-85.097-4.31-123.87 63.47-123.78 115.87-0.194 61.97 58.529 113.08 112.81 109.99-29.27-13.84-65.008-52.66-65.337-110.25-0.3-52.18 29.497-97.55 76.307-115.61z"/><polygon id="polygon674" fill="#fff" stroke-width="1pt" d="m 126.77341,160.21338 -9.75793,-7.62986 -11.8172,3.71287 4.24106,-11.63809 -7.18286,-10.0915 12.37904,0.43712 7.37795,-9.94975 3.40961,11.90825 11.74269,3.94221 -10.27179,6.92258 z" points="126.77 160.21 117.02 152.58 105.2 156.3 109.44 144.66 102.26 134.57 114.64 135 122.01 125.05 125.42 136.96 137.17 140.9 126.89 147.83" transform="matrix(1.23 0 0 1.23 0 .000016587)"/><polygon id="polygon675" fill="#fff" stroke-width="1pt" d="m 126.77341,160.21338 -9.75793,-7.62986 -11.8172,3.71287 4.24106,-11.63809 -7.18286,-10.0915 12.37904,0.43712 7.37795,-9.94975 3.40961,11.90825 11.74269,3.94221 -10.27179,6.92258 z" points="126.77 160.21 117.02 152.58 105.2 156.3 109.44 144.66 102.26 134.57 114.64 135 122.01 125.05 125.42 136.96 137.17 140.9 126.89 147.83" transform="matrix(1.23 0 0 1.23 -.25522 52.063)"/><polygon id="polygon676" fill="#fff" stroke-width="1pt" d="m 126.77341,160.21338 -9.75793,-7.62986 -11.8172,3.71287 4.24106,-11.63809 -7.18286,-10.0915 12.37904,0.43712 7.37795,-9.94975 3.40961,11.90825 11.74269,3.94221 -10.27179,6.92258 z" points="126.77 160.21 117.02 152.58 105.2 156.3 109.44 144.66 102.26 134.57 114.64 135 122.01 125.05 125.42 136.96 137.17 140.9 126.89 147.83" transform="matrix(1.23 0 0 1.23 -.000011822 104.64)"/><polygon id="polygon677" fill="#fff" stroke-width="1pt" d="m 126.77341,160.21338 -9.75793,-7.62986 -11.8172,3.71287 4.24106,-11.63809 -7.18286,-10.0915 12.37904,0.43712 7.37795,-9.94975 3.40961,11.90825 11.74269,3.94221 -10.27179,6.92258 z" points="126.77 160.21 117.02 152.58 105.2 156.3 109.44 144.66 102.26 134.57 114.64 135 122.01 125.05 125.42 136.96 137.17 140.9 126.89 147.83" transform="matrix(1.23 0 0 1.23 -.25522 157.72)"/></g></svg>