<svg xmlns="http://www.w3.org/2000/svg" id="svg378" width="640" height="480" x="0" y="0" version="1"><metadata id="metadata11"/><defs id="defs380"><clipPath id="clipPath4479" clipPathUnits="userSpaceOnUse"><rect id="rect4481" width="682.53" height="511.9" x="5.077" y=".1" fill-opacity=".67"/></clipPath></defs><g id="flag" fill-rule="evenodd" clip-path="url(#clipPath4479)" transform="matrix(.93768 0 0 .93768 -4.761 -.094216)"><rect id="rect149" width="851.86" height="510.95" x="-775.94" y="-511.52" fill="#fff" stroke="#000" stroke-width="1.014" transform="scale(-1)"/><rect id="rect148" width="851.86" height="92.457" x="-775.94" y="419.07" fill="#3e5698" stroke-width="1pt" transform="scale(-1,1)"/><rect id="rect605" width="851.86" height="283.21" x="-775.94" y="-397.65" fill="#c60000" stroke-width="1pt" transform="scale(-1)"/><rect id="rect606" width="851.86" height="92.457" x="-775.94" y=".576" fill="#3e5698" stroke-width="1pt" transform="scale(-1,1)"/><path id="path607" fill="#fff" d="m495.86 1148c0 90.46-73.332 163.79-163.79 163.79-90.46 0-163.79-73.332-163.79-163.79 0-90.46 73.332-163.79 163.79-163.79 90.46 0 163.79 73.332 163.79 163.79z" transform="matrix(.72421 0 0 .70142 -30.589 -549.16)"/><polygon id="polygon136" fill="#c40000" points="498.45 365.81 441.12 324.21 511.95 324.28 533.78 256.9 555.61 324.28 626.44 324.23 569.1 365.81 591.04 433.16 591.04 433.16 533.77 391.48 476.5 433.15" transform="matrix(1.0032 -.0050477 -.010923 .98334 -320.22 -86.633)"/></g></svg>