<svg xmlns="http://www.w3.org/2000/svg" id="svg378" width="640" height="480" x="0" y="0" version="1"><metadata id="metadata3014"/><defs id="defs380"><clipPath id="clipPath4409" clipPathUnits="userSpaceOnUse"><rect id="rect4411" width="682.67" height="512" x="-95.808" y="-.44" fill-opacity=".67"/></clipPath></defs><g id="flag" fill-rule="evenodd" clip-path="url(#clipPath4409)" transform="matrix(.9375 0 0 .9375 89.82 .41242)"><rect id="rect149" width="730.17" height="512" x="-610.61" y="-511.56" fill="#fff" transform="scale(-1)"/><path id="path607" fill="#fff" d="m495.86 1148c0 90.46-73.332 163.79-163.79 163.79-90.46 0-163.79-73.332-163.79-163.79 0-90.46 73.332-163.79 163.79-163.79 90.46 0 163.79 73.332 163.79 163.79z" transform="matrix(.68690 0 0 .68690 -88.735 -532.54)"/><path id="path635" fill="#c70000" d="m733.7 381.73c0 125.78-101.96 227.74-227.74 227.74s-227.74-101.96-227.74-227.74 101.96-227.74 227.74-227.74 227.74 101.96 227.74 227.74z" transform="matrix(.63784 0 0 .64461 -74.972 16.483)"/><rect id="rect636" width="127.92" height="26.201" x="-127.97" y="45.309" stroke-width="1pt" transform="rotate(-49.156)"/><rect id="rect637" width="127.92" height="26.201" x="-127.97" y="81.527" stroke-width="1pt" transform="rotate(-49.156)"/><rect id="rect638" width="127.92" height="26.201" x="-127.97" y="45.309" stroke-width="1pt" transform="rotate(-49.156)"/><rect id="rect639" width="127.92" height="26.201" x="-127.97" y="45.309" stroke-width="1pt" transform="rotate(-49.156)"/><rect id="rect640" width="127.92" height="26.201" x="-127.97" y="118.52" stroke-width="1pt" transform="rotate(-49.156)"/><rect id="rect641" width="127.92" height="26.201" x="-127.97" y="45.309" stroke-width="1pt" transform="rotate(-49.156)"/><rect id="rect643" width="127.92" height="26.201" x="-127.97" y="45.309" stroke-width="1pt" transform="rotate(-49.156)"/><rect id="rect644" width="127.92" height="26.201" x="320.65" y="-330.34" stroke-width="1pt" transform="matrix(.64886 .76090 -.76090 .64886 0 0)"/><rect id="rect645" width="127.92" height="26.201" x="320.65" y="-257.13" stroke-width="1pt" transform="matrix(.64886 .76090 -.76090 .64886 0 0)"/><path id="path649" fill="#fff" d="m417.55 133.19 78.602-67.814 14.641 16.953-83.996 75.519-9.2471-24.659z"/><rect id="rect646" width="125.1" height="25.644" x="-42.832" y="-633.05" stroke-width="1pt" transform="matrix(-.64282 .76602 -.76881 -.63948 0 0)"/><rect id="rect642" width="127.92" height="26.201" x="320.65" y="-294.12" stroke-width="1pt" transform="matrix(.64886 .76090 -.76090 .64886 0 0)"/><rect id="rect647" width="125.1" height="25.644" x="-42.832" y="-668.49" stroke-width="1pt" transform="matrix(-.64282 .76602 -.76881 -.63948 0 0)"/><rect id="rect648" width="125.1" height="25.644" x="-42.832" y="-596.84" stroke-width="1pt" transform="matrix(-.64282 .76602 -.76881 -.63948 0 0)"/><path id="path653" fill="#3d5897" d="m104.6 236.68c4.5919 36.974 11.297 78.175 68.199 82.455 21.328 1.2776 62.817-5.0735 77.061-63.19 18.688-55.829 74.975-71.88 113.28-41.613 21.718 14.166 27.727 36.666 29.283 53.557-1.7386 54.243-32.874 101.2-72.823 122.14-45.93 27.3-109.56 27.87-165.3-13.49-25.12-23.57-60.219-67.02-49.7-139.86z"/><path id="path654" fill="#fff" d="m435.91 370.59 78.734 67.661-14.591 16.997-87.156-71.851 23.013-12.807z"/><rect id="rect658" width="127.92" height="26.201" x="270.57" y="233.21" stroke-width="1pt" transform="matrix(.64886 .76090 -.76090 .64886 0 0)"/><path id="path657" fill="#fff" stroke-width="1pt" d="m-16.188 437.25 78.602-67.814 14.641 16.953-83.996 75.519-9.2471-24.659z"/><rect id="rect655" width="127.92" height="26.201" x="270.57" y="196.99" stroke-width="1pt" transform="matrix(.64886 .76090 -.76090 .64886 0 0)"/><rect id="rect656" width="127.92" height="26.201" x="270.57" y="270.2" stroke-width="1pt" transform="matrix(.64886 .76090 -.76090 .64886 0 0)"/></g></svg>