<svg xmlns="http://www.w3.org/2000/svg" id="svg665" width="640" height="480" version="1.1"><metadata id="metadata3336"/><defs id="defs667"><clipPath id="clipPath3540" clipPathUnits="userSpaceOnUse"><rect id="rect3542" width="682.67" height="512" x="0" y="0" fill-opacity=".67"/></clipPath></defs><g id="flag" fill-rule="evenodd" clip-path="url(#clipPath3540)" transform="matrix(.93750 0 0 .93750 0 .0000019913)"><rect id="rect560" width="767.87" height="511.92" x="0" y=".084" fill="#fff" stroke-width="1pt"/><rect id="rect668" width="232.74" height="232.75" x="0" y="0" fill="#006" stroke-width="1pt"/><rect id="rect669" width="767.89" height="47.127" x="0" y="464.87" fill="#c00" stroke-width="1pt"/><rect id="rect670" width="767.89" height="46.574" x="0" y="465.43" fill="#c00" stroke-width="1pt"/><rect id="rect672" width="767.89" height="46.21" x="0" y="372.52" fill="#c00" stroke-width="1pt"/><rect id="rect673" width="765.96" height="46.7" x="0" y="279.26" fill="#c00" stroke-width="1pt"/><rect id="rect675" width="535.17" height="46.494" x="232.67" y=".055" fill="#c00" stroke-width="1pt"/><rect id="rect676" width="535.17" height="46.796" x="232.67" y="186.06" fill="#c00" stroke-width="1pt"/><rect id="rect677" width="535.17" height="46.494" x="232.67" y="93.361" fill="#c00" stroke-width="1pt"/><path id="path205" fill="#fff" stroke-width=".113" d="m166.35 177.47-50.71-30.98-50.465 31.29 18.769-50.85-50.373-31.394 62.321-0.438 19.328-50.691l19.744 50.574 62.321 0.0667-50.115 31.693 19.184 50.732z"/></g></svg>