<svg xmlns="http://www.w3.org/2000/svg" xmlns:svg="http://www.w3.org/2000/svg" id="svg2" width="640" height="480" version="1.0" viewBox="0 0 320 240"><metadata id="metadata32"/><defs id="defs30"><clipPath id="clipPath3033" clipPathUnits="userSpaceOnUse"><rect style="fill:#000;stroke:none" id="rect3035" width="400" height="300" x="25" y="-60"/></clipPath></defs><g id="flag" clip-path="url(#clipPath3033)" transform="matrix(0.8,0,0,0.8,-20,48)"><rect style="fill:#fff" id="rect4" width="450" height="300" x="0" y="-60"/><rect style="fill:#009543" id="rect6" width="450" height="90" x="0" y="150"/><rect style="fill:#00209f" id="rect8" width="450" height="90" x="0" y="-60"/><g id="g10" transform="matrix(1.136951,0,0,1.136951,-30.56399,-88.2596)"><path id="path1873" d="m 224.57279,108.91288 c -1.50388,0.0324 -2.97116,1.69822 -2.97116,1.69822 l 0.12957,17.79578 -5.61839,5.88594 4.54822,0 -0.0384,10.20503 -26.90654,36.23074 -3.97746,-1.37476 -6.952,14.83008 c 0,0 17.19492,10.76695 42.15236,10.47257 27.39225,-0.32574 42.27445,-10.96924 42.27445,-10.96924 l -7.18387,-14.63937 -3.51783,1.52979 -27.25092,-36.04277 -0.0384,-10.50962 4.54822,0 -6.19007,-5.81274 0.0366,-17.73099 c 0,0 -1.54047,-1.60105 -3.04434,-1.56866 z" style="fill:#000;stroke:#000;stroke-width:.87954509px;stroke-linecap:butt;stroke-linejoin:miter"/><path id="path2760" d="m 233.9532,151.51811 -18.6046,0 c 0,0 -6.7528,-14.22794 -5.6582,-24.17473 1.11455,-10.12817 6.90291,-14.91939 14.59866,-15.00419 9.09883,-0.10138 13.86768,4.45847 15.30833,14.59867 1.42758,10.04818 -5.64419,24.58025 -5.64419,24.58025 z" style="fill:none;stroke:#000;stroke-width:4.39772797;stroke-linecap:butt;stroke-linejoin:miter;stroke-miterlimit:4;stroke-dasharray:none"/><path id="path3649" d="m 192.05034,185.43391 c -0.30414,0.40552 -2.53449,4.86622 -2.53449,4.86622 l 3.85243,-0.81104 -1.31794,-4.05518 z" style="fill:#fff;stroke:none"/><path id="path3651" d="m 194.28069,191.21255 -4.05518,1.31793 4.86622,1.92622 -0.81104,-3.24415 z" style="fill:#fff;stroke:none"/><path id="path3653" d="m 196.10552,185.53529 2.0276,5.9814 4.9676,-1.41932 -1.31794,-2.83863 -5.67726,-1.72345 z" style="fill:#fff;stroke:none"/><path id="path3655" d="m 199.24829,193.64566 0.70966,2.43311 6.58968,1.62207 -2.63587,-5.57588 -4.66347,1.5207 z" style="fill:#fff;stroke:none"/><path id="path3657" d="m 206.54763,188.57668 2.33173,5.57588 4.9676,-1.92622 -1.62207,-2.43311 -5.67726,-1.21655 z" style="fill:#fff;stroke:none"/><path id="path3659" d="m 209.79178,196.18015 0.81103,2.12897 7.70486,1.11518 -3.24415,-5.06898 -5.27174,1.82483 z" style="fill:#fff;stroke:none"/><path id="path3661" d="m 217.19249,190.19875 2.83863,4.9676 7.19795,-2.63587 -0.81103,-1.92621 -9.22555,-0.40552 z" style="fill:#fff;stroke:none"/><path id="path3663" d="m 221.34906,196.99119 1.52069,2.63587 8.92141,-0.30414 -3.34553,-4.9676 -7.09657,2.63587 z" style="fill:#fff;stroke:none"/><path id="path3665" d="m 230.77736,190.40151 2.43311,4.15657 5.67726,-2.73725 -1.52069,-2.23036 -6.58968,0.81104 z" style="fill:#fff;stroke:none"/><path id="path3667" d="m 240.10429,193.54428 -5.67726,2.83863 1.52069,2.43311 7.60347,-1.21655 -3.4469,-4.05519 z" style="fill:#fff;stroke:none"/><path id="path3669" d="m 241.92912,189.18496 2.94001,3.64966 4.76484,-3.75105 -1.62207,-1.72345 -6.08278,1.82484 z" style="fill:#fff;stroke:none"/><path id="path3671" d="m 250.64777,191.11117 -4.56208,3.44691 1.21655,2.12897 6.28554,-1.62208 -2.94001,-3.9538 z" style="fill:#fff;stroke:none"/><path id="path3673" d="m 256.93331,183.91321 1.11517,1.62208 -3.14276,4.66346 -3.24415,-4.15656 5.27174,-2.12898 z" style="fill:#fff;stroke:none"/><path id="path3675" d="m 259.06228,187.9684 1.92621,3.85243 -3.85242,1.31793 -0.30414,-1.82483 2.23035,-3.34553 z" style="fill:#fff;stroke:none"/></g></g></svg>