<svg xmlns="http://www.w3.org/2000/svg" xmlns:svg="http://www.w3.org/2000/svg" xmlns:xlink="http://www.w3.org/1999/xlink" id="svg2" width="640" height="480" version="1.1" viewBox="0 0 6.4 4.8"><metadata id="metadata28"/><defs id="defs4"><polygon id="pt" points="0 -.5 .162 0 -.162 0" transform="scale(8.844,8.844)" style="fill:#fff"/><g id="star"><use id="use8" width="18" height="12" x="0" y="0" transform="matrix(-0.80901699,-0.58778525,0.58778525,-0.80901699,0,0)" xlink:href="#pt"/><use id="use10" width="18" height="12" x="0" y="0" transform="matrix(0.30901699,-0.95105652,0.95105652,0.30901699,0,0)" xlink:href="#pt"/><use id="use12" width="18" height="12" x="0" y="0" xlink:href="#pt"/><use id="use14" width="18" height="12" x="0" y="0" transform="matrix(0.30901699,0.95105652,-0.95105652,0.30901699,0,0)" xlink:href="#pt"/><use id="use16" width="18" height="12" x="0" y="0" transform="matrix(-0.80901699,0.58778525,-0.58778525,-0.80901699,0,0)" xlink:href="#pt"/></g><clipPath id="clipPath3013" clipPathUnits="userSpaceOnUse"><rect style="stroke:none" id="rect3015" width="16" height="12" x="1" y="-7.2"/></clipPath></defs><g id="flag" clip-path="url(#clipPath3013)" transform="matrix(0.40000001,0,0,0.40000001,-0.4,2.88)"><rect style="fill:#fecb00" id="rect18" width="18" height="6" x="0" y="-7.2"/><rect style="fill:#ea2839" id="rect20" width="18" height="6" x="0" y="-1.2"/><rect style="fill:#34b233" id="rect22" width="18" height="4" x="0" y="-3.2"/><use id="use24" width="18" height="12" x="9" y="6.422" transform="translate(0,-7.2)" xlink:href="#star"/></g></svg>