<svg xmlns="http://www.w3.org/2000/svg" id="svg2498" width="640" height="480" version="1.1"><metadata id="metadata3203"/><defs id="defs2500"><clipPath id="clipPath3533" clipPathUnits="userSpaceOnUse"><rect id="rect3535" width="496.06" height="372.05" x="0" y="0" fill-opacity=".67"/></clipPath></defs><g id="flag" clip-path="url(#clipPath3533)" transform="matrix(1.2902 0 0 1.2902 .00030339 .00047220)"><rect id="rect1310" width="499.55" height="248.1" x=".013" y="0" fill="#fff" fill-rule="evenodd" stroke-width="1pt"/><path id="path549" fill="#c00" d="m0.013255 0.0003312-0.02081 18.621 119.21 61.253 44.86 1.3-164.05-81.174z"/><path id="path551" fill="#006" d="m51.054 0.0003312 144.53 75.491v-75.491h-144.52z"/><path id="path552" fill="#c00" d="m214.86 0.0003312v96.372h-214.84v55.07h214.84v96.372h66.106v-96.372h214.84v-55.07h-214.84v-96.372h-66.106z"/><path id="path554" fill="#006" d="m300.24 0.0003312v71.132l141.39-70.581-141.39-0.55067z"/><path id="path555" fill="#c00" d="m304.71 78.887 39.76-0.32 154.48-78.016-40.99 0.6682-153.25 77.668z"/><path id="path700" fill="#006" d="m0.013255 167.5v52.775l99.159-52.22-99.159-0.56z"/><path id="path701" fill="#c00" d="m381.85 169.68-41.336-0.321 155.82 77.58-1.025-17.749-113.46-59.51zm-343.12 78.57 146.11-76.71-38.38 0.26-146.45 76.34"/><path id="path556" fill="#006" d="m497.9 21.795-118 58.515 116.43 0.4357v87.194h-99.159l98.242 53.231 1.442 27.079-52.474-0.627-143.62-70.505v71.132h-104.67v-71.132l-134.72 70.941-60.844 0.191v247.81h991.59v-495.63l-493.17-0.42967m-498.41 27.971-0.52326 51.467 104.39 1.308-103.86-52.775z"/><g id="g3304" fill="#ffd900" fill-rule="evenodd" stroke-width="1pt"><rect id="rect3302" width="496.06" height="496.06" x="496.06" y="0"/><rect id="rect3303" width="523.49" height="248.03" x="0" y="248.03"/></g><g id="g3330" fill-rule="evenodd" transform="translate(7.6357 -229.39)"><path id="path3329" fill="#000067" d="m284.27 354.68c0 23.619-19.147 42.767-42.767 42.767-23.619 0-42.767-19.147-42.767-42.767s19.147-42.767 42.767-42.767c23.619 0 42.767 19.147 42.767 42.767z" transform="translate(-1.0063 -.000015259)"/><polygon id="polygon3317" fill="#fff40d" stroke-width="1pt" points="511.95 324.28 533.78 256.9 555.61 324.28 626.44 324.23 569.1 365.81 591.04 433.16 591.04 433.16 533.77 391.48 476.5 433.15 498.45 365.81 441.12 324.21" transform="matrix(.37676 0 0 .36496 39.671 225.36)"/><polygon id="polygon3325" fill="#fff40d" stroke-width="1pt" points="511.95 324.28 533.78 256.9 555.61 324.28 626.44 324.23 569.1 365.81 591.04 433.16 591.04 433.16 533.77 391.48 476.5 433.15 498.45 365.81 441.12 324.21" transform="matrix(.18672 0 0 .17086 285.51 292.33)"/><polygon id="polygon3326" fill="#fff40d" stroke-width="1pt" points="511.95 324.28 533.78 256.9 555.61 324.28 626.44 324.23 569.1 365.81 591.04 433.16 591.04 433.16 533.77 391.48 476.5 433.15 498.45 365.81 441.12 324.21" transform="matrix(.18672 0 0 .17086 140.83 377.87)"/><polygon id="polygon3327" fill="#fff40d" stroke-width="1pt" points="511.95 324.28 533.78 256.9 555.61 324.28 626.44 324.23 569.1 365.81 591.04 433.16 591.04 433.16 533.77 391.48 476.5 433.15 498.45 365.81 441.12 324.21" transform="matrix(.18672 0 0 .17086 140.83 210.82)"/><polygon id="polygon3328" fill="#fff40d" stroke-width="1pt" points="511.95 324.28 533.78 256.9 555.61 324.28 626.44 324.23 569.1 365.81 591.04 433.16 591.04 433.16 533.77 391.48 476.5 433.15 498.45 365.81 441.12 324.21" transform="matrix(.18672 0 0 .17086 -4.2973 292.33)"/></g></g></svg>