<svg xmlns="http://www.w3.org/2000/svg" id="svg1646" width="640" height="480" version="1.1"><metadata id="metadata3564"/><defs id="defs1648"><clipPath id="clipPath3037" clipPathUnits="userSpaceOnUse"><rect id="rect3039" width="640" height="480" x="0" y="0" fill-opacity=".67"/></clipPath></defs><g id="flag" clip-path="url(#clipPath3037)"><rect id="rect2996" width="640" height="480" x="0" y="0" fill="#fff"/><rect id="rect555" width="477.19" height="480" x="92.462" y="0" fill="#fff" fill-rule="evenodd" stroke-width="1pt"/><rect id="rect1649" width="358" height="221.68" x="323.07" y="3.655" fill="#db0000" fill-rule="evenodd" stroke-width="1pt"/><rect id="rect1650" width="319.87" height="254.66" x="3.227" y="225.33" fill="#0000ab" fill-rule="evenodd" stroke-width="1pt"/><path id="path205" fill="#0000ab" fill-rule="evenodd" stroke-width=".113" d="m214.8 177.65-41.959-29.326-41.754 29.614 15.529-48.124-41.677-29.716 51.562-0.4143 15.993-47.978 16.335 47.867 51.562 0.06322-41.463 29.996 15.872 48.017z"/><path id="path1660" fill="#d80000" fill-rule="evenodd" stroke-width=".113" d="m516.85 413.89-42.354-27.744-42.146 28.017 15.675-45.529-42.069-28.114 52.047-0.39198 16.143-45.391 16.489 45.286 52.047 0.0598-41.853 28.379 16.021 45.428z"/></g></svg>