<svg xmlns="http://www.w3.org/2000/svg" id="svg378" width="640" height="480" x="0" y="0" version="1"><metadata id="metadata3079"/><defs id="defs380"><clipPath id="clipPath15251" clipPathUnits="userSpaceOnUse"><rect id="rect15253" width="640" height="480" x="0" y="0" fill-opacity=".67"/></clipPath></defs><g id="flag" clip-path="url(#clipPath15251)"><g id="g15168" fill-rule="evenodd" transform="matrix(.9375 0 0 .9375 -1.2495 -.0000022609)"><rect id="rect149" width="768" height="512" x="-20" y="0" fill="#fff" stroke-width="1pt"/><rect id="rect148" width="768" height="256" x="-20" y="0" fill="#df0000" stroke-width="1pt"/><path id="path141" fill="#fff" stroke-width=".524" d="m157.12 42.909c-35.46 8.13-61.807 34.386-69.256 70.081-10.121 48.5 21.466 95.99 70.066 106.12-49.1 14-99.829-14.22-113.7-62.86-13.863-48.64 14.358-99.372 63-113.24 17.075-4.8694 32.795-4.9 49.892-0.10094z"/><polygon id="polygon142" fill="#fff" stroke-width=".524" points="262.25 522.28 266.19 534.45 266.19 534.45 255.78 527.02 245.42 534.52 249.27 522.33 238.94 514.8 251.72 514.69 255.69 502.53 259.74 514.66 272.53 514.68" transform="matrix(1.3251 0 0 1.3251 -204.33 -574.79)"/><polygon id="polygon144" fill="#fff" stroke-width=".524" points="262.25 522.28 266.19 534.45 266.19 534.45 255.78 527.02 245.42 534.52 249.27 522.33 238.94 514.8 251.72 514.69 255.69 502.53 259.74 514.66 272.53 514.68" transform="matrix(1.3251 0 0 1.3251 -185.6 -519.26)"/><polygon id="polygon145" fill="#fff" stroke-width=".524" points="262.25 522.28 266.19 534.45 266.19 534.45 255.78 527.02 245.42 534.52 249.27 522.33 238.94 514.8 251.72 514.69 255.69 502.53 259.74 514.66 272.53 514.68" transform="matrix(1.3251 0 0 1.3251 -123.28 -519.66)"/><polygon id="polygon146" fill="#fff" stroke-width=".524" points="262.25 522.28 266.19 534.45 266.19 534.45 255.78 527.02 245.42 534.52 249.27 522.33 238.94 514.8 251.72 514.69 255.69 502.53 259.74 514.66 272.53 514.68" transform="matrix(1.3251 0 0 1.3251 -104.69 -574.74)"/><polygon id="polygon147" fill="#fff" stroke-width=".524" points="262.25 522.28 266.19 534.45 266.19 534.45 255.78 527.02 245.42 534.52 249.27 522.33 238.94 514.8 251.72 514.69 255.69 502.53 259.74 514.66 272.53 514.68" transform="matrix(1.3251 0 0 1.3251 -154.03 -611.28)"/></g></g></svg>