<svg xmlns="http://www.w3.org/2000/svg" id="svg378" width="640" height="480" x="0" y="0" version="1"><metadata id="metadata3619"/><g id="flag" fill-rule="evenodd"><rect id="rect171" width="640" height="480" x="0" y="0" fill="#fff" rx="0" ry="0"/><rect id="rect256" width="480" height="159.3" x="0" y="320.7" fill="#fff" rx="0" ry="0"/><rect id="rect255" width="480" height="159.3" x="0" y="0" fill="#fff"/><path id="path205" fill="#fff" d="m201.9 281-28.822-20.867-28.68 21.072 10.667-34.242-28.628-21.145 35.418-0.2948 10.985-34.138 11.221 34.06 35.418 0.0449-28.481 21.344 10.902 34.166z"/><path id="path583" fill="#fff" d="m509.54 281-28.822-20.867-28.68 21.072 10.667-34.242-28.628-21.145 35.418-0.2948 10.985-34.138 11.221 34.06 35.418 0.0449-28.481 21.344 10.902 34.166z"/><rect id="rect7524" width="640" height="159.3" x="0" y="320.7" stroke-width="1pt" rx="0" ry="0"/><rect id="rect7526" width="640" height="159.3" x="0" y="0" fill="red" stroke-width="1pt"/><path id="path7528" fill="#090" stroke-width=".113" d="m201.9 281-28.822-20.867-28.68 21.072 10.667-34.242-28.628-21.145 35.418-0.2948 10.985-34.138 11.221 34.06 35.418 0.0449-28.481 21.344 10.902 34.166z"/><path id="path7530" fill="#090" stroke-width=".113" d="m509.54 281-28.822-20.867-28.68 21.072 10.667-34.242-28.628-21.145 35.418-0.2948 10.985-34.138 11.221 34.06 35.418 0.0449-28.481 21.344 10.902 34.166z"/></g></svg>