<svg xmlns="http://www.w3.org/2000/svg" id="svg548" width="640" height="480" version="1.1"><metadata id="metadata3717"/><defs id="defs550"><clipPath id="clipPath7468" clipPathUnits="userSpaceOnUse"><rect id="rect7470" width="682.67" height="512" x="0" y="0" fill-opacity=".67"/></clipPath></defs><g id="flag" fill-rule="evenodd" clip-path="url(#clipPath7468)" transform="matrix(.93750 0 0 .93750 0 .000012273)"><rect id="rect558" width="767.63" height="512" x="0" y="0" fill="#ffe300" stroke-width="1pt"/><rect id="rect555" width="767.63" height="102.81" x="0" y="208.14" fill="#118600" stroke-width="1pt"/><rect id="rect570" width="767.63" height="102.81" x="0" y=".248" fill="#118600" stroke-width="1pt"/><rect id="rect554" width="306.51" height="310.71" x="0" y=".248" fill="#d80000" stroke-width="1pt"/><path id="path567" fill="#fff" d="m134.42 128.43c0-0.85625 18.836-53.083 18.836-53.083l17.124 52.227s57.365 1.7125 57.365 0.85625-45.378 34.248-45.378 34.248 21.404 59.933 20.549 58.221c-0.85625-1.7125-49.659-35.96-49.659-35.96s-49.658 34.248-48.802 34.248c0.85625 0 18.835-56.508 18.835-56.508l-44.522-33.392 55.652-0.85625z"/><rect id="rect569" width="767.63" height="102.81" x="0" y="409.19" fill="#118600" stroke-width="1pt"/></g></svg>