<svg xmlns="http://www.w3.org/2000/svg" id="svg548" width="640" height="480" version="1.1"><metadata id="metadata3781"/><defs id="defs550"><clipPath id="clipPath7035" clipPathUnits="userSpaceOnUse"><rect id="rect7037" width="682.67" height="512" x="0" y="0" fill-opacity=".67"/></clipPath></defs><g id="flag" fill-rule="evenodd" clip-path="url(#clipPath7035)" transform="matrix(.93750 0 0 .93750 0 -.000016050)"><rect id="rect672" width="1031.2" height="512" x="0" y="0" fill="#cb000f" stroke-width="1pt"/><path id="path671" fill="#f8c00c" d="m0 0.000033605c3.2337 0 512 256.72 512 256.72l-512 255.28v-512z"/><path id="path670" d="m0 0.000033605c2.1513 0 340.62 256.72 340.62 256.72l-340.62 255.28v-512z"/><path id="path663" fill="#fff" d="m187.71 298.16-60.813-13.478-31.072 52.839-4.8613-59.677-60.753-13.372 54.84-24.817-3.2916-59.385 40.235 43.39 55.341-25.232-28.827 53.899 39.203 45.835z"/></g></svg>