<svg xmlns="http://www.w3.org/2000/svg" id="svg2498" width="640" height="480" version="1.1"><metadata id="metadata4144"/><defs id="defs2500"><clipPath id="clipPath5023" clipPathUnits="userSpaceOnUse"><rect id="rect5025" width="640" height="480" x="0" y="0" fill-opacity=".67"/></clipPath></defs><g id="flag" clip-path="url(#clipPath5023)"><g id="g5547" fill="#009fca" fill-rule="evenodd" stroke-width="1pt" transform="matrix(.64508 0 0 .92059 0 23.331)"><rect id="rect5549" width="486.16" height="515.87" x="505.97" y="-19.81"/><rect id="rect5551" width="523.49" height="521.41" x="0" y="-25.343" ry="0"/></g><g id="g3907" transform="scale(1.6543)"><rect id="rect1310" width="239.29" height="118.84" x=".01" y="0" fill="#fff" fill-rule="evenodd"/><path id="path549" fill="#c00" d="m0.0099681 0.00033452-0.0099681 8.9195 57.103 29.341 21.485 0.622-78.578-38.883z"/><path id="path551" fill="#006" d="m24.459 0.00033452 69.228 36.161v-36.161h-69.228z"/><path id="path552" fill="#c00" d="m102.92 0.00033452v46.163h-102.91v26.379h102.91v46.163h31.666v-46.163h102.91v-26.379h-102.91v-46.163h-31.666z"/><path id="path554" fill="#006" d="m143.82 0.00033452v34.073l67.73-33.809-67.73-0.26367z"/><path id="path555" fill="#c00" d="m145.96 37.788 19.05-0.153 74-37.371-19.64 0.32017-73.41 37.204z"/><path id="path700" fill="#006" d="m0.0099681 80.237v25.28l47.498-25.02-47.498-0.263z"/><path id="path701" fill="#c00" d="m182.91 81.28-19.8-0.15376 74.638 37.162-0.49099-8.502-54.346-28.506zm-164.35 37.63 69.984-36.739-18.381 0.121-70.151 36.568"/></g><path id="path556" fill="#006" d="m394.55 17.271-93.502 46.368 92.257 0.34526v69.093h-78.575l77.848 42.181 1.1427 21.458-41.581-0.49684-113.8-55.869v56.366h-82.939v-56.366l-106.75 56.215-48.214 0.15137v196.37h785.75v-392.74l-390.82-0.33945m-394.95 22.164-0.41463 40.783 82.722 1.037-82.307-41.82z"/><g id="g3304" fill="#009fca" fill-rule="evenodd" transform="matrix(.79241 0 0 .79977 .0059867 .00029105)"><rect id="rect3302" width="496.06" height="496.06" x="496.06" y="0"/><rect id="rect3303" width="525.79" height="251.45" x="-2.303" y="244.61" rx="0" ry="0"/></g><g id="g5553" fill="#fff40d" fill-rule="evenodd" stroke-width="1pt" transform="matrix(1.5189 0 0 1.5189 -136.22 80.582)"><polygon id="polygon136" points="555.61 324.28 626.44 324.23 569.1 365.81 591.04 433.16 591.04 433.16 533.77 391.48 476.5 433.15 498.45 365.81 441.12 324.21 511.95 324.28 533.78 256.9" transform="matrix(.25628 0 0 .24119 337.93 -50.489)"/><polygon id="polygon3314" points="555.61 324.28 626.44 324.23 569.1 365.81 591.04 433.16 591.04 433.16 533.77 391.48 476.5 433.15 498.45 365.81 441.12 324.21 511.95 324.28 533.78 256.9" transform="matrix(.25628 0 0 .24119 292.37 79.065)"/><polygon id="polygon3315" points="555.61 324.28 626.44 324.23 569.1 365.81 591.04 433.16 591.04 433.16 533.77 391.48 476.5 433.15 498.45 365.81 441.12 324.21 511.95 324.28 533.78 256.9" transform="matrix(.25628 0 0 .24119 337.93 49.738)"/><polygon id="polygon3317" points="555.61 324.28 626.44 324.23 569.1 365.81 591.04 433.16 591.04 433.16 533.77 391.48 476.5 433.15 498.45 365.81 441.12 324.21 511.95 324.28 533.78 256.9" transform="matrix(.25628 0 0 .24119 142.03 143.7)"/><polygon id="polygon3319" points="555.61 324.28 626.44 324.23 569.1 365.81 591.04 433.16 591.04 433.16 533.77 391.48 476.5 433.15 498.45 365.81 441.12 324.21 511.95 324.28 533.78 256.9" transform="matrix(-.25628 0 0 -.24119 468.01 249.77)"/><polygon id="polygon3320" points="555.61 324.28 626.44 324.23 569.1 365.81 591.04 433.16 591.04 433.16 533.77 391.48 476.5 433.15 498.45 365.81 441.12 324.21 511.95 324.28 533.78 256.9" transform="matrix(-.25628 0 0 -.24119 521.54 175.74)"/><polygon id="polygon3321" points="555.61 324.28 626.44 324.23 569.1 365.81 591.04 433.16 591.04 433.16 533.77 391.48 476.5 433.15 498.45 365.81 441.12 324.21 511.95 324.28 533.78 256.9" transform="matrix(-.25628 0 0 -.24119 566.53 160.36)"/><polygon id="polygon3322" points="555.61 324.28 626.44 324.23 569.1 365.81 591.04 433.16 591.04 433.16 533.77 391.48 476.5 433.15 498.45 365.81 441.12 324.21 511.95 324.28 533.78 256.9" transform="matrix(-.25628 0 0 -.24119 521.54 288.49)"/><polygon id="polygon3323" points="555.61 324.28 626.44 324.23 569.1 365.81 591.04 433.16 591.04 433.16 533.77 391.48 476.5 433.15 498.45 365.81 441.12 324.21 511.95 324.28 533.78 256.9" transform="matrix(-.25628 0 0 -.24119 468.01 301.59)"/></g></g></svg>