<svg xmlns="http://www.w3.org/2000/svg" xmlns:xlink="http://www.w3.org/1999/xlink" width="640" height="480" viewBox="0 0 128 96"><defs><g id="f" transform="translate(0 -36)"><g id="e"><g id="d"><path id="c" fill="#fff" d="M0-5l-1.545 4.755 2.853.927z"/><use width="180" height="120" transform="scale(-1 1)" xlink:href="#c"/></g><use width="180" height="120" transform="rotate(72)" xlink:href="#d"/></g><use width="180" height="120" transform="rotate(-72)" xlink:href="#d"/><use width="180" height="120" transform="matrix(-.809 .588 -.588 -.809 0 0)" xlink:href="#e"/></g></defs><path fill="#cf142b" d="M0 0h128v96h-128z"/><path fill="#00247d" d="M0 0h128v64h-128z"/><path fill="#fc0" d="M0 0h128v32h-128z"/><g transform="matrix(.8 0 0 .8 64 67.2)"><g id="b"><g id="a"><use width="180" height="120" transform="rotate(10)" xlink:href="#f"/><use width="180" height="120" transform="rotate(30)" xlink:href="#f"/></g><use width="180" height="120" transform="rotate(40)" xlink:href="#a"/></g><use width="180" height="120" transform="rotate(-80)" xlink:href="#b"/></g></svg>