<?xml version="1.0" encoding="utf-8"?>
<!-- Generator: Adobe Illustrator 16.0.0, SVG Export Plug-In . SVG Version: 6.00 Build 0)  -->
<!DOCTYPE svg PUBLIC "-//W3C//DTD SVG 1.1//EN" "http://www.w3.org/Graphics/SVG/1.1/DTD/svg11.dtd">
<svg version="1.1" id="Layer_1" xmlns="http://www.w3.org/2000/svg" xmlns:xlink="http://www.w3.org/1999/xlink" x="0px" y="0px"
	 width="77px" height="46px" viewBox="0 0 77 46" enable-background="new 0 0 77 46" xml:space="preserve">
<path fill="#1A1A1A" d="M27.109,19.65l-5.448-9.825l-9.29,16.702l4.199-1.25c0.355-0.09,0.713,0,0.893,0.179l4.286,3.841
	l3.842-3.841c0.267-0.269,0.625-0.356,0.982-0.269l4.197,1.25L27.109,19.65L27.109,19.65z M33.183,44.035l3.751-6.788l-4.644-8.308
	l-5.539-1.607l-4.108,4.109c-0.178,0.179-0.446,0.268-0.713,0.268c-0.269,0-0.446-0.089-0.626-0.268l-4.555-4.109l-5.537,1.607
	L2.725,44.035H33.183L33.183,44.035z M75.075,46H1.027c-0.356,0-0.714-0.18-0.893-0.445c-0.179-0.27-0.179-0.716,0-0.982
	L20.856,7.235c0.18-0.357,0.536-0.536,0.893-0.536c0.358,0,0.715,0.179,0.893,0.536l5.448,9.825l9.112-16.524
	C37.381,0.179,37.738,0,38.096,0c0.358,0,0.714,0.179,0.894,0.536l9.199,16.614l5.449-9.826c0.178-0.357,0.535-0.536,0.894-0.536
	c0.354,0,0.714,0.178,0.894,0.536L75.969,44.48c0.09,0.18,0.18,0.357,0.18,0.625C76.057,45.555,75.609,46,75.075,46L75.075,46z
	 M45.152,26.527l4.197-1.25c0.357-0.09,0.715,0,0.894,0.179l4.288,3.841l3.84-3.841c0.27-0.269,0.626-0.356,0.982-0.269l4.198,1.25
	L54.439,9.736l-5.447,9.826L45.152,26.527L45.152,26.527z M54.62,31.798c-0.269,0-0.446-0.089-0.626-0.269l-4.557-4.107l-5.625,1.52
	l-8.396,15.095h37.961L65.07,28.939l-5.537-1.607l-4.108,4.109C55.156,31.709,54.887,31.798,54.62,31.798L54.62,31.798z
	 M33.094,11.969l5.179,3.751l4.735-3.751l-5.002-8.932L33.094,11.969L33.094,11.969z M38.273,18.043
	c-0.178,0-0.446-0.09-0.624-0.179l-5.539-4.109l-3.036,5.449l8.932,16.077l8.934-16.077l-2.948-5.359l-5.091,4.02
	C38.721,17.953,38.453,18.043,38.273,18.043L38.273,18.043z"/>
</svg>
